<?xml version="1.0" ?><!DOCTYPE svg  PUBLIC '-//W3C//DTD SVG 1.1//EN'  'http://www.w3.org/Graphics/SVG/1.1/DTD/svg11.dtd'><svg enable-background="new 0 0 512 512" height="512px" id="Layer_1" version="1.1" viewBox="0 0 512 512" width="512px" xml:space="preserve" xmlns="http://www.w3.org/2000/svg" xmlns:xlink="http://www.w3.org/1999/xlink"><path d="M472.934,408.914C425.87,472.678,343.936,512.739,256,511.989c-87.937,0.75-169.872-39.312-216.935-103.075L0.005,447.991  V319.994h127.997l-35.188,35.17c28.22,46.719,75.438,80.296,131.186,89.812V251.463c-55.123-14.265-95.998-63.889-95.998-123.466  C128.002,57.312,185.314,0,256,0c70.685,0,127.997,57.312,127.997,127.998c0,59.577-40.875,109.201-95.997,123.466v193.512  c55.747-9.516,102.967-43.093,131.184-89.812l-35.187-35.17h127.996v127.997L472.934,408.914z M319.997,127.998  c0-35.343-28.653-63.999-63.997-63.999c-35.345,0-63.999,28.656-63.999,63.999s28.654,63.999,63.999,63.999  C291.344,191.996,319.997,163.34,319.997,127.998z"/></svg>