<svg xmlns="http://www.w3.org/2000/svg" width="21" height="30"><g fill="none" fill-rule="evenodd"><path fill="#4DBA87" fill-rule="nonzero" d="M18.216 6.117c.221-.178.512-.13.59.214.633 2.824 2.013 13.083 1.751 13.851a.28.28 0 0 1-.06.1c-.34.437-.807.764-1.282 1.07-1.658 1.068-3.553 1.76-5.47 2.168-3.1.662-6.42.466-9.26-.96-.502-.251-1.006-.554-1.58-.52-.54.031-.967.576-.946 1.172.014.398.189.779.4 1.117l.043.1c.009.094.023.122-.013.214-.08.206-.368.283-.538.14a.455.455 0 0 1-.093-.115C.946 23.35.774 21.73.732 20.138c-.071-2.74.278-5.485.764-8.175.22-1.214.454-2.428.816-3.618.103-.338.223-.67.453-.95a2.14 2.14 0 0 1 1.339-.758c.568-.08 1.147.095 1.638.387a10.375 10.375 0 0 0 4.303 1.39c2.091.195 4.225-.196 6.134-1.047a9.304 9.304 0 0 0 2.037-1.25z"/><path stroke="#435466" d="M15.983 16.603l.013-.006.014-.004.013-.004.014-.004.014-.005.012-.003.014-.005.014-.004.013-.004.014-.003.013-.004.014-.004.013-.003.014-.003.013-.003.013-.003.013-.003.015-.003.013-.002.013-.003.013-.002.014-.003.013-.002.013-.003.014-.002.013-.002.013-.001.014-.002.014-.002.012-.001.013-.002.014-.001.013-.002h.013l.013-.001h.013l.013-.002h.014l.013-.001h.09l.012.001h.013l.013.002h.011l.013.001.013.003.01.003.012.003.011.004.01.005.01.005.01.006.007.007.008.008.007.008.007.008.005.01.005.01.005.01.004.01.002.012.003.011.002.012v.053l-.004.014-.003.014-.003.015-.004.014-.005.014-.006.016-.007.015-.007.015-.007.015-.008.015-.009.015-.01.015-.01.016-.01.013-.012.016-.012.013-.011.015-.013.014-.013.013-.013.013-.014.012-.014.013-.015.012-.014.011-.014.011-.016.011-.015.01-.015.01-.015.008-.016.008-.015.008-.016.007-.016.007-.014.005-.016.005-.015.005-.015.004-.014.003h-.015l-.014.004h-.04l-.01-.001h-.008l-.008-.001h-.025l-.008-.001h-.041l-.008.001h-.009l-.008.001h-.007l-.009.001h-.009l-.008.002-.008.001h-.008l-.007.002h-.009l-.009.002-.008.001-.008.002h-.008l-.008.003-.008.001-.008.001-.008.002-.009.002h-.008l-.009.003-.007.002-.009.002-.008.002-.008.002-.008.002-.009.002-.008.002-.008.002-.008.003-.008.003-.009.002-.008.002-.008.003-.008.003-.008.002-.008.003-.008.003-.01.003-.007.003-.008.002-.008.004-.008.003-.009.003-.007.003-.01.004-.007.003-.008.003-.008.004-.009.003-.007.004-.009.004-.008.004-.008.003-.008.004-.009.004-.007.003-.008.004-.009.005-.007.003-.008.004-.008.004-.009.004-.007.005-.009.004-.008.004-.008.005-.008.004-.008.005-.008.004-.008.004-.008.005-.007.005-.008.004-.008.005-.008.006-.009.004-.007.005-.009.005-.007.005-.008.005-.008.005-.007.005-.009.005-.007.005-.008.005-.008.005-.007.006-.008.005-.008.005-.008.005-.008.007-.007.005-.007.005-.008.005-.008.006-.007.005-.007.006-.008.006-.009.006-.007.005-.007.006-.007.006-.007.006-.007.006-.008.006-.007.006-.008.006-.007.005-.008.007-.007.005-.007.006-.008.006-.007.006-.007.007-.007.006-.007.005-.006.007-.008.006-.006.007-.008.006-.006.006-.007.006-.007.006-.006.007-.007.005-.007.008-.007.006-.006.006-.006.007-.007.005-.008.008-.005.005-.007.007-.007.007-.005.006-.007.006-.006.008-.007.006-.005.006-.007.007-.006.006-.006.007-.006.007-.006.006-.005.007-.007.006-.005.007-.006.006-.006.007-.005.006-.005.007-.007.006-.005.007-.005.007-.007.006-.004.006-.005.007-.006.007-.005.007-.006.006-.004.006-.005.007-.005.006-.005.007-.005.006-.005.007-.004.006-.005.007-.005.006-.005.007-.004.006-.005.006-.004.007-.005.007-.004.006-.005.006-.003.006-.004.006-.005.007-.003.006-.005.006-.004.006-.003.007-.004.005-.003.007-.005.006-.004.006-.003.006-.003.006-.004.006-.003.006-.003.006-.003.006-.004.006-.002.006-.004.005-.003.006-.002.006-.004.006-.002.005-.003.006-.002.006-.004.006-.002.005-.002.006-.002.005-.003.005-.002.006-.002.005-.002.006-.003.005-.002.005-.002.006-.002.005-.002.006-.001.004-.002.006-.003.005-.001.004-.001.005-.001.005-.002.006v.004l-.003.005-.001.005-.001.005v.004l-.002.005-.002.004v.01l-.002.003-.001.005v.004l-.002.005V18.291l-.001.004v.004l-.001.006v.003l-.001.005v.014l-.003.014-.003.014-.004.015-.003.014-.006.015-.005.015-.007.015-.007.015-.008.015-.008.016-.008.014-.01.015-.01.015-.01.014-.011.015-.012.015-.012.013-.013.015-.013.012-.013.014-.014.012-.014.013-.014.012-.015.012-.014.011-.016.01-.015.01-.015.01-.015.009-.016.008-.015.008-.016.006-.015.007-.015.006-.016.005-.015.005-.015.003-.014.004-.015.002-.014.002h-.014l-.013.001h-.014l-.012-.002-.012-.002-.012-.003-.011-.003-.011-.004-.01-.005-.01-.006-.009-.006-.01-.006-.007-.007-.007-.008-.007-.009-.006-.01-.005-.01-.004-.01-.003-.01-.004-.011-.002-.012-.002-.012v-.048l.001-.011.001-.011.002-.01v-.011l.003-.01v-.012l.003-.01.002-.013.001-.01.003-.011.002-.01.002-.012.003-.01.002-.013.003-.01.004-.012.002-.01.003-.012.003-.012.003-.01.004-.012.003-.011.004-.011.004-.012.004-.011.004-.011.004-.012.004-.011.005-.012.004-.011.004-.011.005-.012.005-.012.005-.011.004-.012.006-.01.005-.012.004-.012.007-.011.004-.012.007-.011.005-.012.006-.011.006-.012.005-.012.007-.011.005-.011.007-.012.006-.012.006-.01.007-.012.006-.011.007-.011.006-.013.007-.01.007-.012.006-.012.008-.01.007-.013.008-.011.006-.01.007-.013.008-.011.008-.012.007-.01.008-.012.007-.011.008-.012.008-.011.008-.01.008-.012.008-.012.008-.012.008-.01.009-.012.008-.01.008-.012.009-.01.009-.012.009-.011.008-.012.008-.01.01-.012.008-.01.008-.011.01-.012.01-.011.008-.01.01-.011.009-.012.01-.01.009-.011.01-.01.008-.012.01-.01.01-.012.01-.01.01-.011.009-.01.01-.011.01-.01.01-.011.01-.01.01-.012.01-.01.01-.011.01-.01.01-.01.011-.012.01-.01.01-.01.011-.01.011-.01.01-.01.012-.011.01-.01.01-.01.012-.01.011-.01.011-.01.011-.01.01-.01.011-.01.011-.01.012-.01.011-.01.012-.01.01-.01.012-.009.01-.01.013-.01.012-.01.01-.008.012-.01.012-.009.012-.01.012-.01.011-.008.012-.01.011-.01.013-.008.012-.01.012-.008.011-.01.013-.008.011-.01.013-.008.012-.009.012-.008.012-.009.014-.01.011-.007.012-.009.013-.009.012-.008.013-.008.012-.009.012-.008.013-.008.012-.008.013-.008.014-.009.012-.007.012-.009.013-.007.012-.008.014-.008.013-.007.012-.007.013-.008.013-.008.013-.007.013-.008.014-.007.012-.007.013-.007.013-.006.014-.008.012-.007.013-.007.013-.006.014-.007.014-.007.012-.006.013-.007.014-.005.013-.007.013-.005.014-.008.013-.005.013-.006.014-.006.013-.005.013-.005.014-.007.013-.005.014-.006.012-.005.014-.005.014-.006.013-.004.013-.006.015-.005.013-.004zM6.354 16.92l.014.001.012.001.012.002h.013l.012.002.013.001.012.002.013.002.012.002.013.002.012.001.013.002.012.002.012.002.013.002.013.003.012.002.012.003.013.001.012.003.012.002.013.003.013.003.011.003.013.003.013.003.012.002.012.004.013.003.011.003.013.004.012.003.013.004.012.004.013.004.012.003.012.003.012.004.012.005.013.004.012.004.012.004.012.005.013.004.012.004.011.005.013.004.012.005.01.004.014.006.012.005.012.004.01.006.013.005.012.005.012.006.012.004.012.006.011.006.011.006.012.005.012.006.012.006.011.006.012.006.012.007.01.005.012.007.012.006.01.006.012.007.011.007.012.007.01.006.012.007.01.006.011.008.012.007.01.007.012.007.01.008.011.007.011.008.01.007.012.008.01.008.01.007.011.009.01.007.01.009.011.008.01.008.01.008.01.009.011.008.01.009.01.009.01.008.01.01.01.008.008.01.01.008.01.009.009.01.01.009.01.009.008.01.01.01.008.01.01.009.008.01.01.009.008.01.008.01.008.01.01.01.008.011.008.01.007.01.01.011.007.01.008.01.008.012.008.01.007.011.008.011.007.011.008.012.007.01.007.012.007.012.007.01.008.012.006.012.007.011.006.012.007.011.007.013.005.011.007.013.006.011.006.013.006.012.005.012.006.012.006.013.005.012.005.013.006.012.004.012.006.014.004.012.004.013.006.013.004.013.004.012.004.013.004.014.004.014.002.013.002.014V18.143l-.003.014-.003.013-.004.013-.005.013-.004.014-.007.012-.007.012-.007.012-.009.01-.008.012-.01.01-.012.01-.01.01-.012.008-.012.008-.014.008-.013.007-.013.006-.015.006-.015.004-.015.005-.015.004-.016.002-.015.002-.017.002H7.65l-.017-.001-.016-.001-.016-.003-.016-.003-.015-.004-.017-.004-.015-.006-.015-.006-.015-.005-.014-.008-.014-.008-.014-.008-.013-.01-.013-.009-.012-.01-.011-.01-.011-.012-.01-.011-.01-.012-.009-.012-.007-.013-.008-.013-.006-.012-.006-.014-.005-.014-.003-.01-.003-.009-.003-.008-.002-.008-.004-.008-.002-.009-.004-.007-.004-.009-.003-.008-.003-.008-.004-.008-.003-.007-.004-.009-.004-.007-.003-.007-.003-.009-.004-.007-.004-.008-.005-.008-.004-.006-.004-.008-.004-.007-.004-.007-.004-.007-.005-.008-.004-.007-.004-.006-.005-.008-.004-.007-.005-.006-.005-.007-.004-.007-.004-.006-.005-.007-.005-.007-.005-.006-.005-.007-.005-.007-.005-.005-.005-.007-.005-.006-.006-.007-.005-.006-.005-.006-.006-.006-.004-.006-.007-.007-.005-.005-.005-.005-.006-.006-.006-.006-.005-.006-.006-.006-.005-.005-.006-.006-.007-.005-.005-.006-.007-.006-.005-.005-.006-.005-.007-.006-.005-.005-.006-.005-.007-.005-.006-.005-.006-.005-.007-.005-.006-.005-.007-.006-.005-.005-.007-.004-.007-.005-.007-.005-.006-.005-.007-.004-.007-.005-.007-.005-.006-.004-.007-.005-.007-.004-.007-.004-.007-.005-.007-.004-.007-.004-.007-.005-.007-.004-.007-.003-.007-.005-.007-.004-.007-.003-.008-.005-.008-.003-.007-.005-.007-.003-.007-.005-.007-.003-.008-.003-.008-.004-.007-.003-.007-.005-.008-.003-.008-.004-.008-.002-.007-.003-.008-.004-.007-.004-.008-.003-.008-.003-.008-.003-.007-.002-.009-.004-.007-.002-.008-.004-.008-.003-.008-.002-.007-.003-.009-.003-.007-.003-.009-.002-.007-.003-.008-.002-.009-.003-.007-.002-.008-.002-.009-.002-.007-.003-.008-.002-.009-.002-.008-.002-.007-.002-.009-.003-.008-.001-.008-.002-.008-.002-.008-.002-.008-.001-.01-.002-.007-.002-.008-.002-.008-.001-.009-.002-.008-.002h-.008l-.008-.001-.008-.002-.008-.002h-.009l-.008-.002-.008-.001H6.4l-.008-.002h-.008l-.008-.002h-.008l-.008-.001H6.35l-.007-.002h-.009l-.008-.001h-.008l-.008-.001h-.016l-.008-.001h-.008l-.009-.001H6.183l-.008.001-.007.001h-.015l-.008.001h-.008l-.008.001-.007.001h-.007l-.007.002H6.1l-.008.001-.007.001-.008.001-.006.001h-.008l-.007.002-.007.002H6.04l-.007.001-.007.002-.007.001-.007.002-.007.001-.007.002-.006.001-.008.002-.006.001-.007.002-.006.001-.007.002-.007.002-.006.002-.007.002-.007.002-.006.002-.007.002-.007.002-.005.001-.006.003-.006.002-.006.002-.007.002-.006.002-.005.003-.006.002-.006.003-.006.002-.006.002-.006.003-.005.002-.006.003-.006.003-.005.002-.005.003-.006.002-.005.003-.006.003-.005.003-.005.003-.005.002-.005.004-.005.002-.005.003-.005.003-.005.003-.005.004-.004.003-.005.002-.004.004-.005.003-.005.004-.004.003-.004.003-.005.003-.003.003-.006.004-.003.004-.005.004-.012.009-.012.008-.012.008-.013.007-.014.007-.014.007-.014.005-.015.004-.015.005-.016.002-.015.004-.016.001-.017.001h-.031l-.016-.001-.017-.002-.016-.002-.016-.005-.016-.003-.015-.004-.015-.006-.016-.006-.015-.007-.013-.007-.014-.009-.014-.009-.013-.009-.013-.01-.011-.01-.012-.01-.01-.012-.01-.011-.01-.013-.008-.012-.007-.013-.008-.013-.005-.013-.006-.013-.005-.013-.004-.014-.002-.015-.003-.013v-.042l.002-.014.002-.013.003-.014.004-.013.004-.013.006-.012.006-.013.008-.012.008-.011.009-.011.01-.01.01-.011.01-.01.008-.006.009-.008.008-.007.008-.007.01-.007.009-.007.008-.007.01-.006.009-.007.01-.006.009-.007.009-.005.01-.006.01-.007.009-.005.01-.006.009-.006.01-.006.01-.005.01-.006.01-.006.01-.005.01-.005.01-.005.01-.005.012-.004.01-.006.01-.005.01-.005.011-.004.011-.005.01-.004.01-.004.012-.005.01-.004.011-.004.012-.003.01-.004.011-.004.012-.004.01-.004.012-.002.01-.004.012-.004.012-.003.01-.004.012-.002.011-.003.012-.004.011-.002.011-.003.013-.002.011-.003.011-.003.012-.003.011-.002.012-.002.011-.002.013-.003.012-.001.011-.003.012-.001.011-.002.013-.002.011-.002.012-.001.012-.002.012-.001.012-.002H6l.012-.002h.013l.012-.001.012-.002.012-.001h.024l.012-.002h.024l.013-.001h.024l.013-.001h.061l.012.001h.025l.012.002h.038l.012.002.012.001z"/><path fill="#F3F3F3" d="M19.137 26.984c-5.156 2.712-12.918 1.898-16.43-1.428C1.854 24.75 1 23.51 1.62 22.446c.7-1.199 2.125-.516 2.627-.26 6.842 3.484 14.953-.597 16.154-2.188-4.321 5.016-1.064 6.88-1.264 6.986z"/><path stroke="#435466" stroke-width="1.011" d="M19.137 26.984c-5.156 2.712-12.918 1.898-16.43-1.428C1.854 24.75 1 23.51 1.62 22.446c.7-1.199 2.125-.516 2.627-.26 6.842 3.484 14.953-.597 16.154-2.188"/><path stroke="#99A4A6" stroke-width="1.011" d="M20.288 23.483c-6.302 3.688-13.422 3.438-17.29.212"/><path fill="#435466" d="M11.89 9.925c0-.246-.085-.71-.148-1.018a9.204 9.204 0 0 0-1.39-3.321l-.001-.003c.527-.088 1.41-.034 1.883.112 0 0 .13.037.227-.015.11-.06.148-.195.13-.327-.099-.751-.955-2.374-2.017-2.969-.31-.173-.339.182-.212.304.793.632 1.461 1.92 1.565 2.333-.213-.052-1.414-.288-2.277.022 0 0-.112.06-.147.1a.362.362 0 0 0-.07.34c.016.052.132.215.184.294.645.973 1.044 2.083 1.254 3.243.054.297.125.642.125.905s.2.453.447.453a.452.452 0 0 0 .446-.453z"/><g transform="translate(8.907 .108)"><ellipse cx="1.738" cy="1.747" fill="#FE9901" rx="1.701" ry="1.723" transform="translate(.01)"/><ellipse cx=".638" cy=".641" fill="#FDFDFD" fill-opacity=".3" rx="1" ry="1" transform="translate(.585 .287)"/></g></g></svg>