<svg xmlns="http://www.w3.org/2000/svg" width="20" height="28"><g fill="none" fill-rule="evenodd"><path fill="#4DBA87" fill-rule="nonzero" d="M16.956 5.699c.214-.168.495-.123.57.202.612 2.664 1.946 12.343 1.693 13.068-.011.033-.018.042-.058.093-.328.413-.78.722-1.24 1.01-1.602 1.008-3.434 1.66-5.287 2.046-2.998.624-6.206.44-8.953-.905-.484-.238-.972-.524-1.526-.492-.522.03-.936.544-.915 1.106.014.376.182.735.387 1.054l.041.094c.009.09.022.116-.013.203-.078.193-.355.267-.52.132a.43.43 0 0 1-.09-.11C.26 21.959.095 20.43.055 18.928c-.07-2.584.268-5.174.738-7.712.212-1.146.44-2.29.789-3.414.1-.319.215-.632.438-.896a2.081 2.081 0 0 1 1.294-.716c.55-.076 1.11.09 1.584.366a10.203 10.203 0 0 0 4.16 1.31c2.022.185 4.084-.183 5.93-.986a9.036 9.036 0 0 0 1.969-1.18z"/><path fill="#435466" d="M12.82 7.595a12.594 12.594 0 0 0 2.168-.717 9.047 9.047 0 0 0 1.969-1.18.386.386 0 0 1 .325-.086c-.99 2.513-2.778 5.872-3.996 7.597-1.057 1.498-2.165 2.959-2.81 2.956-.644-.003-2.124-1.348-3.337-3.027C5.904 11.426 4.39 8.7 3.266 6.196l.048-.007c.55-.076 1.11.09 1.584.366.86.495 1.791.86 2.757 1.084 1.163 2.095 2.43 4.007 2.793 4.008.347.002 1.47-2.073 2.372-4.052z"/><path fill="#F3F3F3" d="M17.952 25.357c-5.068 2.578-12.679 1.84-16.112-1.286-.833-.759-1.667-1.925-1.055-2.93.691-1.134 2.087-.495 2.578-.256 6.7 3.262 14.67-.618 15.855-2.125-4.258 4.75-1.07 6.497-1.266 6.597z"/><path stroke="#435466" stroke-width="1.153" d="M17.952 25.357c-5.068 2.578-12.679 1.84-16.112-1.286-.833-.759-1.667-1.925-1.055-2.93.691-1.134 2.087-.495 2.578-.256 6.7 3.262 14.67-.618 15.855-2.125"/><path stroke="#99A4A6" stroke-width="1.152" d="M19.22 22.014c-6.309 3.533-13.4 3.353-17.229.338"/><path fill="#435466" d="M10.84 9.292c0-.232-.081-.67-.142-.96a8.572 8.572 0 0 0-1.343-3.134l-.002-.003c.51-.082 1.364-.031 1.82.106 0 0 .127.036.22-.014.106-.056.143-.184.126-.308-.095-.709-.923-2.24-1.95-2.801-.3-.164-.328.171-.205.286.767.597 1.412 1.812 1.513 2.201-.206-.049-1.367-.27-2.201.022 0 0-.109.056-.143.094a.335.335 0 0 0-.068.321c.016.049.128.202.178.277.625.918 1.01 1.965 1.213 3.059.052.28.12.606.12.854 0 .249.194.427.433.427a.432.432 0 0 0 .432-.427z"/><g transform="translate(7.958 .03)"><ellipse cx="1.68" cy="1.648" fill="#FE9901" rx="1.644" ry="1.626" transform="translate(.01)"/><ellipse cx=".617" cy=".605" fill="#FDFDFD" fill-opacity=".3" rx="1" ry="1" transform="translate(.566 .27)"/></g></g></svg>