<svg viewBox="0 0 2122 600" xmlns="http://www.w3.org/2000/svg" fill-rule="evenodd" clip-rule="evenodd" stroke-linecap="round" stroke-linejoin="round" stroke-miterlimit="1.5"><path fill="none" d="M.018 0h2122.005v600H.018z"/><path d="M1101.236 319.973c0-8.235-1.263-16.164-4.095-23.91-13.138-35.922-57.784-47.467-88.86-26.663-16.813 11.262-26.288 30.497-26.288 50.573 0 20.088 9.475 39.323 26.287 50.573 31.077 20.804 75.723 9.27 88.861-26.651 2.832-7.747 4.095-15.686 4.095-23.922m-139.9-65.78h21.613l.022 14.684h.66c25.878-38.822 87.2-37.56 118.265-6.563 23.068 23.034 28.949 59.889 16.869 89.77-5.779 14.287-15.8 26.709-28.71 35.172-13.878 9.11-30.269 13.376-46.797 13.308-22.738-.08-46.682-10.067-59.627-29.484h-.66l.069 109.768h-21.613l-.09-226.656M1654.813 319.973c0-8.508-1.365-16.482-4.095-23.91-2.73-7.428-6.609-13.866-11.625-19.326-5.028-5.46-11.09-9.782-18.189-12.944-7.097-3.163-15.117-4.744-24.08-4.744-8.952 0-16.972 1.581-24.07 4.744-7.097 3.162-13.103 7.484-18.017 12.944-4.914 5.46-8.736 11.898-11.466 19.326-2.73 7.428-4.095 15.402-4.095 23.91 0 8.52 1.365 16.494 4.095 23.922 2.73 7.427 6.552 13.865 11.466 19.325 4.914 5.46 10.92 9.771 18.018 12.934 7.097 3.173 15.117 4.754 24.069 4.754 8.963 0 16.983-1.58 24.08-4.754 7.098-3.163 13.161-7.474 18.189-12.934 5.016-5.46 8.895-11.898 11.625-19.325 2.73-7.428 4.095-15.402 4.095-23.922zm23.592 0c0 11.58-2.025 22.284-6.063 32.111-4.038 9.828-9.669 18.337-16.87 25.548-7.21 7.212-15.788 12.831-25.718 16.87-9.942 4.049-20.918 6.062-32.93 6.062-11.785 0-22.659-2.013-32.59-6.063-9.941-4.038-18.506-9.657-25.718-16.869-7.212-7.211-12.83-15.72-16.869-25.548-4.038-9.827-6.063-20.531-6.063-32.11 0-11.57 2.025-22.273 6.063-32.1 4.038-9.829 9.657-18.348 16.87-25.56 7.21-7.2 15.776-12.82 25.718-16.869 9.93-4.038 20.804-6.051 32.589-6.051 12.012 0 22.988 2.013 32.93 6.051 9.93 4.05 18.507 9.669 25.719 16.869 7.2 7.212 12.83 15.731 16.869 25.56 4.038 9.827 6.063 20.53 6.063 32.1z" fill="#435466" fill-rule="nonzero"/><circle cx="1522.77" cy="2897.27" r="13.145" fill="#435466" transform="matrix(1.13749 0 0 1.13749 -575.138 -3110.939)"/><circle cx="1522.77" cy="2897.27" r="13.145" fill="#435466" transform="translate(-280.202 -2129.003) scale(.82245)"/><circle cx="1522.77" cy="2897.27" r="13.145" fill="#435466" transform="translate(-280.202 -1902.597) scale(.82245)"/><path d="M918.017 385.504l.069-14.424h-.649c-12.944 19.417-36.889 29.405-59.627 29.484-16.528.068-32.919-4.197-46.808-13.308-12.899-8.463-22.92-20.885-28.699-35.172-12.091-29.881-6.199-66.736 16.87-89.77 31.064-30.997 92.375-32.26 118.264 6.563h.649l.022-14.15a11.27 11.27 0 0 1-.034-.876c0-5.972 4.846-10.817 10.818-10.817 5.96 0 10.806 4.845 10.806 10.817v.341h.034l-.09 130.208c.045.364.056.728.056 1.104 0 5.972-4.846 10.817-10.806 10.817-5.972 0-10.818-4.845-10.818-10.817h-.057zm-118.185-65.53c0-8.236 1.263-16.165 4.095-23.91 13.127-35.923 57.785-47.468 88.86-26.664 16.813 11.262 26.288 30.497 26.288 50.573 0 20.088-9.475 39.323-26.287 50.573-31.076 20.804-75.734 9.27-88.86-26.651-2.833-7.747-4.096-15.686-4.096-23.922zM623.18 160.11c0-.124-.011-.25-.011-.375 0-5.96 4.845-10.806 10.817-10.806 5.96 0 10.806 4.846 10.806 10.806v108.153h.66c2.4-4.152 5.46-7.974 9.168-11.466 3.72-3.492 7.872-6.495 12.456-9.01a67.309 67.309 0 0 1 14.571-5.891c5.13-1.422 10.215-2.127 15.242-2.127 19.656 0 34.17 5.187 43.566 15.549 9.396 10.385 14.082 25.173 14.082 44.396v86.802c0 5.972-4.845 10.817-10.806 10.817-5.972 0-10.817-4.845-10.817-10.817v-74.358c0-17.028-2.946-30.086-8.839-39.14-5.892-9.066-16.823-13.594-32.76-13.594-1.091 0-4.151.433-9.167 1.308-5.028.865-10.329 3.276-15.891 7.2-5.574 3.936-10.545 9.829-14.913 17.7-4.368 7.86-6.552 18.78-6.552 32.748v68.534c-.204 5.778-4.97 10.42-10.806 10.42-5.835 0-10.601-4.642-10.806-10.42h-.011V160.11h.011zM1146.453 253.851c0-5.972 4.846-10.817 10.817-10.817 5.96 0 10.807 4.845 10.807 10.817v132.256h-.012c-.318 5.687-5.039 10.214-10.795 10.214-5.767 0-10.487-4.527-10.794-10.214h-.023V253.85zM1828.363 382.979c-.057.09-.137.17-.217.25-5.21 4.436-10.783 7.985-16.743 10.624-9.6 4.254-19.656 6.495-30.133 6.711-12.455.216-23.693-1.695-33.749-5.733-10.044-4.038-18.62-9.668-25.707-16.869-7.11-7.211-12.513-15.777-16.22-25.718-3.709-9.93-5.574-20.691-5.574-32.27 0-11.57 1.865-22.33 5.573-32.26 3.708-9.942 9.112-18.518 16.22-25.719 7.087-7.211 15.664-12.83 25.708-16.868 10.056-4.05 21.294-5.96 33.75-5.733 10.476.216 20.531 2.445 30.132 6.71 6.074 2.697 11.158 5.938 16.448 10.5.466.386.91.83 1.32 1.308 3.753 4.447 3.195 11.102-1.252 14.855-4.197 3.55-10.374 3.242-14.207-.546-2.628-2.366-6.575-5.448-9.68-7.28-6.655-3.935-14.253-5.892-22.762-5.892-8.952-.227-16.982 1.195-24.08 4.255-7.098 3.06-13.161 7.314-18.189 12.774-5.016 5.46-8.838 11.955-11.454 19.496-2.628 7.53-3.936 15.663-3.936 24.4 0 8.735 1.308 16.868 3.936 24.41 2.616 7.53 6.438 14.025 11.454 19.496 5.028 5.449 11.09 9.714 18.189 12.774 7.098 3.06 15.128 4.47 24.08 4.254 8.509 0 16.107-1.967 22.762-5.892 3.276-1.934 6.62-4.334 9.236-6.722a9.895 9.895 0 0 1 1.047-1.024c4.447-3.754 11.101-3.196 14.855 1.251 3.629 4.288 3.22 10.647-.807 14.458zM1873.244 366.917c2.776 2.81 6.325 5.676 9.68 7.77 6.655 4.151 14.572 6.221 23.751 6.221 4.368 0 8.736-.489 13.104-1.478 4.368-.979 8.247-2.503 11.625-4.584 3.39-2.07 6.12-4.744 8.19-8.02 2.082-3.276 3.117-7.098 3.117-11.466 0-7.644-2.844-13.16-8.52-16.55-5.676-3.378-12.558-6.051-20.634-8.02l-20.964-4.913c-2.628-.66-6.177-1.752-10.647-3.276-4.482-1.536-8.85-3.822-13.104-6.882-4.265-3.06-7.917-7.041-10.977-11.955-3.06-4.914-4.595-10.977-4.595-18.188 0-7.86 1.593-14.742 4.755-20.634 3.162-5.893 7.428-10.704 12.774-14.412 5.357-3.72 11.409-6.495 18.188-8.361 6.768-1.854 13.752-2.775 20.964-2.775 10.704 0 20.634 2.07 29.814 6.222 4.402 1.99 9.202 5.596 12.922 9.35.352.33.693.682 1.012 1.069.045.034.068.08.102.114 4.038 4.902 3.39 12.16-1.478 16.266-4.71 3.981-11.66 3.56-15.868-.808a.949.949 0 0 1-.24-.182 38.519 38.519 0 0 0-7.586-6.813c-5.472-3.709-12.126-5.563-19.986-5.563-3.72 0-7.485.433-11.307 1.308-3.822.865-7.257 2.241-10.317 4.095-3.06 1.855-5.516 4.198-7.37 7.041-1.855 2.833-2.787 6.336-2.787 10.488 0 7.2 2.513 12.444 7.541 15.72 5.016 3.276 12.547 6.108 22.602 8.52l21.942 5.244c10.704 2.4 19.61 7.257 26.697 14.571 7.11 7.314 10.658 16.437 10.658 27.357 0 8.303-1.694 15.447-5.084 21.453-3.39 6.005-7.86 10.92-13.434 14.741-5.562 3.822-11.955 6.61-19.155 8.36a93.238 93.238 0 0 1-21.954 2.617c-11.796 0-22.772-2.24-32.93-6.711-5.506-2.434-11.182-6.495-15.948-10.965a11.58 11.58 0 0 1-1.615-1.559 1.02 1.02 0 0 1-.17-.216c-3.788-4.698-3.14-11.602 1.5-15.527 4.687-3.958 11.694-3.39 15.687 1.274l.045.057zM1472.302 159.19c.307-5.688 5.028-10.215 10.795-10.215 5.972 0 10.818 4.845 10.818 10.806 0 .375-.023.75-.057 1.115l.09 224.95h-.045c0 .113.012.227.012.34 0 5.972-4.846 10.818-10.818 10.818-5.96 0-10.806-4.846-10.806-10.818 0-.295.011-.58.034-.876l-.023-14.15h-.66c-25.877 38.823-87.2 37.56-118.253 6.552-23.068-23.023-28.96-59.877-16.88-89.76 5.778-14.286 15.81-26.707 28.71-35.17 13.889-9.111 30.269-13.377 46.808-13.309 22.738.08 46.67 10.056 59.615 29.484h.66l-.068-109.768h.068zm-118.265 160.874c0 8.236 1.263 16.164 4.095 23.91 13.138 35.922 57.785 47.467 88.861 26.663 16.812-11.261 26.287-30.496 26.287-50.573 0-20.088-9.475-39.323-26.287-50.573-31.076-20.804-75.723-9.27-88.86 26.652-2.833 7.746-4.096 15.674-4.096 23.921z" fill="#435466"/><g><path d="M430.058 120.743c3.506-2.779 8.118-2.037 9.34 3.34 10.023 44.133 31.874 204.435 27.729 216.447-.186.547-.294.693-.953 1.545-5.38 6.843-12.774 11.953-20.297 16.734-26.245 16.691-56.246 27.49-86.585 33.88-49.094 10.337-101.63 7.271-146.605-14.998-7.938-3.93-15.922-8.67-24.998-8.144-8.553.497-15.32 9.004-14.988 18.324.23 6.222 2.987 12.168 6.34 17.452l.677 1.561c.141 1.48.359 1.918-.21 3.354-1.274 3.207-5.822 4.42-8.521 2.189-.85-.703-1.452-1.793-1.459-1.807-12.863-20.578-15.588-45.888-16.247-70.78-1.126-42.811 4.4-85.707 12.09-127.743 3.473-18.98 7.196-37.937 12.92-56.538 1.626-5.284 3.525-10.461 7.172-14.847 5.302-6.375 12.985-10.702 21.192-11.85 9-1.257 18.166 1.497 25.932 6.06 20.808 12.126 44.156 19.497 68.124 21.71 33.11 3.058 66.89-3.053 97.108-16.348 11.533-5.075 22.388-11.718 32.24-19.541z" fill="#4dba87" fill-rule="nonzero"/><path d="M391.267 286.216l.189.004.203.005.197.005.19.007.195.012.194.011.188.013.202.012.2.019.197.017.2.02.196.022.193.02.2.028.196.025.192.029.207.029.195.032.194.032.204.035.2.039.192.036.201.042.203.044.195.04.198.047.2.048.192.05.2.049.198.054.203.053.2.059.191.057.2.06.205.064.194.06.197.065.2.067.201.072.197.074.186.068.204.074.2.078.19.075.197.082.196.084.203.082.191.085.192.087.172.077.222.11.225.113.213.127.21.132.204.142.2.148.194.157.19.162.182.17.174.178.17.182.156.193.158.194.143.203.139.207.13.213.124.215.11.224.104.226.098.228.084.236.078.237.07.238.06.24.05.246.041.245.03.248.023.248.016.246.003.25-.01.25-.017.25-.025.247-.034.246-.041.243-.056.244-.064.242-.073.238-.082.236-.086.23-.1.229-.11.226-.114.219-.124.215-.134.21-.143.208-.144.197-.158.196-.164.188-.17.18-.178.177-.185.168-.19.16-.195.154-.201.144-.207.138-.212.13-.217.121-.223.114-.228.106-.23.096-.234.087-.235.077-.24.07-.241.06-.242.048-.246.042-.247.031-.247.021-.252.015-.247.002-.25-.005-.248-.018-.245-.026-.251-.032-.245-.045-.24-.056-.243-.062-.237-.072-.236-.08-.23-.093-.229-.099-.121-.054-.1-.044-.1-.044-.096-.038-.09-.04-.095-.037-.099-.042-.093-.035-.087-.036-.11-.037-.09-.032-.086-.033-.097-.03-.091-.031-.099-.033-.087-.026-.09-.03-.101-.026-.088-.026-.092-.024-.087-.026-.093-.023-.098-.023-.085-.023-.091-.02-.098-.022-.087-.016-.088-.017-.096-.02-.087-.016-.081-.017-.094-.015-.093-.014-.084-.013-.092-.013-.092-.013-.083-.01-.097-.01-.09-.01-.082-.009-.089-.009-.08-.006-.087-.007-.1-.004-.086-.005-.086-.005-.092-.003-.085-.003-.078-.003-.09-.002-.091-.001-.088.002h-.083l-.082.001-.089.001-.092.006-.081.003-.08.003-.087.004-.091.008-.086.005-.085.006-.083.01-.084.007-.084.008-.089.012-.083.009-.082.01-.088.013-.081.012-.087.014-.08.013-.086.014-.086.016-.08.014-.09.02-.079.014-.077.017-.078.016-.095.023-.083.02-.076.019-.082.019-.087.024-.076.019-.08.023-.086.024-.08.024-.086.026-.08.023-.073.024-.083.028-.084.028-.072.025-.083.028-.083.03-.082.03-.076.03-.076.029-.081.03-.075.031-.08.033-.074.031-.075.032-.084.037-.073.033-.079.035-.083.039-.067.031-.077.037-.082.04-.067.033-.076.04-.076.038-.07.037-.075.04-.08.044-.07.038-.074.042-.068.039-.074.042-.073.044-.067.04-.073.044-.072.045-.076.048-.062.04-.066.043-.08.052-.061.04-.065.045-.07.048-.069.049-.069.049-.059.043-.064.047-.072.054-.067.05-.054.041-.067.053-.07.055-.058.046-.066.054-.065.054-.057.046-.055.048-.065.056-.06.051-.059.053-.059.053-.06.053-.062.058-.05.047-.057.055-.062.06-.049.048-.052.052-.06.06-.057.058-.047.05-.052.053-.043.048-.059.062-.058.065-.047.05-.045.053-.058.065-.041.05-.045.052-.056.067-.045.055-.04.05-.044.055-.04.052-.054.069-.043.057-.039.052-.038.053-.042.058-.045.063-.038.054-.041.059-.037.056-.036.055-.041.06-.036.056-.032.053-.036.057-.035.057-.035.058-.03.054-.036.058-.03.055-.024.044-.034.059-.035.068-.023.046-.029.056-.03.057-.022.046-.034.07-.028.056-.018.044-.027.059-.023.055-.019.042-.021.048-.023.055-.027.07-.017.045-.017.043-.018.053-.02.058-.022.058-.014.04-.016.045-.016.055-.02.059-.013.041-.008.038-.02.06-.007.038-.012.041-.01.054-.015.058-.012.041-.008.039-.009.055-.011.043-.003.035-.014.059-.006.039-.003.035-.009.057-.007.038v.02l-.008.057-.003.053v.02l-.007.039-.003.054-.002.038-.001.036-.002.037-.002.037-.001.037.003.034-.002.056v.02l.004.033-.001.038.004.035.003.035v.038l.004.035.004.055.023.247.01.249.002.248-.01.25-.017.248-.026.247-.04.247-.047.246-.056.243-.065.24-.074.238-.082.234-.092.232-.102.228-.11.224-.115.218-.125.213-.135.21-.145.206-.15.198-.159.194-.16.184-.175.182-.18.174-.181.164-.19.16-.202.153-.202.144-.208.136-.213.128-.219.12-.224.112-.224.102-.23.094-.236.086-.237.075-.24.069-.243.057-.242.048-.248.04-.248.03-.247.02-.248.01h-.248l-.253-.006-.247-.018-.247-.029-.247-.036-.245-.046-.24-.057-.24-.065-.238-.074-.237-.082-.23-.093-.23-.1-.222-.11-.22-.117-.214-.127-.212-.134-.203-.142-.197-.152-.193-.157-.186-.165-.182-.17-.174-.18-.166-.185-.156-.193-.153-.197-.143-.203-.14-.207-.124-.216-.125-.215-.109-.224-.104-.226-.094-.23-.083-.236-.077-.236-.066-.24-.06-.242-.048-.244-.037-.248-.03-.247-.017-.162-.016-.179-.011-.182-.016-.178-.01-.18-.005-.183-.004-.182-.007-.197v-.164l.003-.182v-.178l.003-.18.01-.183.009-.181.01-.18.01-.162.012-.18.019-.198.016-.162.018-.161.025-.198.025-.18.024-.162.025-.18.027-.176.03-.162.033-.178.034-.177.033-.16.04-.178.04-.177.034-.157.039-.16.047-.177.048-.177.042-.155.049-.175.05-.173.053-.16.048-.156.054-.169.062-.176.055-.156.056-.155.055-.156.066-.17.063-.166.058-.142.063-.155.07-.165.073-.17.066-.152.066-.15.077-.164.072-.152.068-.139.078-.162.08-.152.073-.15.087-.16.07-.135.082-.148.087-.16.083-.146.088-.15.084-.143.085-.145.09-.145.09-.145.092-.145.092-.143.093-.142.094-.14.094-.14.095-.14.1-.141.093-.132.102-.139.102-.139.102-.138.104-.136.093-.123.109-.138.11-.137.11-.137.107-.132.101-.121.113-.134.117-.136.103-.118.115-.13.12-.134.11-.118.108-.12.121-.13.119-.125.124-.128.116-.119.117-.117.121-.122.131-.126.12-.115.118-.115.133-.124.122-.111.125-.115.127-.114.127-.113.133-.115.128-.11.134-.114.14-.116.125-.104.132-.107.14-.113.125-.098.133-.104.152-.116.136-.102.13-.097.141-.104.146-.106.138-.098.148-.103.139-.096.144-.099.15-.1.136-.09.147-.095.157-.1.143-.09.144-.09.154-.093.15-.09.151-.09.152-.088.152-.087.158-.089.154-.084.15-.082.154-.083.161-.084.157-.081.157-.08.163-.082.155-.074.159-.077.17-.08.157-.073.161-.073.168-.075.159-.069.159-.068.17-.07.165-.07.172-.068.162-.064.173-.067.17-.063.17-.063.17-.06.16-.057.178-.06.172-.059.169-.054.185-.06.17-.052.17-.052.183-.054.172-.049.179-.05.18-.047.174-.046.176-.044.183-.045.178-.04.177-.042.18-.039.185-.039.187-.039.176-.034.188-.036.184-.032.179-.03.185-.03.187-.03.187-.027.188-.027.183-.023.19-.024.186-.02.186-.02.192-.02.194-.018.19-.016.183-.012.19-.014.187-.009.198-.012.195-.007.19-.006.188-.006.198-.003h.192l.2-.002.187.002zM242.828 287.38l.188.002.193.004.186.007.174.005.193.008.192.01.179.009.191.012.185.013.184.014.19.016.191.017.183.019.184.019.195.023.182.022.182.023.189.024.193.028.182.027.193.03.187.031.174.03.192.034.192.036.18.034.19.038.179.038.184.04.19.042.19.044.184.043.183.045.183.047.188.049.188.05.176.049.187.054.187.055.175.052.187.057.185.06.186.059.185.062.18.061.178.063.184.065.178.066.184.068.183.07.183.072.176.071.17.07.194.08.181.079.164.07.18.08.186.085.174.082.18.084.173.085.179.086.178.09.172.089.166.086.183.097.176.097.17.094.17.096.17.096.176.102.174.105.163.098.18.11.167.107.162.102.167.108.172.115.16.109.172.115.165.116.159.115.17.121.158.118.164.12.163.125.162.127.157.124.155.126.162.131.16.133.155.13.149.13.154.134.153.137.158.143.152.14.148.136.145.141.162.154.14.141.15.148.149.153.143.15.143.151.137.151.142.154.136.154.146.165.14.162.135.16.135.16.128.16.138.168.133.168.132.169.125.17.13.176.126.17.12.168.128.18.123.18.118.175.123.18.12.188.117.18.115.185.114.188.11.181.113.191.112.196.108.19.101.188.111.2.102.189.099.196.109.209.094.19.092.2.102.211.091.202.092.2.09.204.09.211.089.211.083.207.088.214.082.216.077.208.076.21.08.22.074.218.075.216.073.222.067.22.073.225.06.198.069.264.061.27.054.271.035.273.027.275.014.275.008.277-.012.275-.018.275-.03.274-.044.273-.056.27-.062.27-.08.263-.086.262-.104.256-.11.253-.121.248-.127.244-.144.236-.15.232-.16.224-.172.216-.183.209-.188.202-.198.193-.203.186-.213.175-.217.168-.228.157-.233.148-.236.138-.246.127-.25.118-.254.106-.258.096-.267.082-.265.073-.269.062-.272.05-.27.04-.278.026-.276.015-.274.004-.277-.008-.273-.02-.278-.031-.268-.043-.271-.054-.269-.066-.265-.078-.263-.089-.253-.099-.257-.11-.248-.122-.24-.13-.236-.142-.234-.152-.224-.162-.216-.17-.208-.179-.204-.19-.19-.194-.188-.206-.173-.212-.171-.22-.157-.227-.148-.233-.134-.238-.132-.246-.118-.25-.104-.254-.096-.26-.082-.262-.043-.139-.036-.113-.03-.109-.038-.109-.036-.111-.038-.106-.038-.105-.038-.108-.043-.11-.039-.103-.04-.1-.044-.104-.04-.099-.04-.095-.046-.1-.045-.105-.046-.098-.043-.088-.047-.095-.051-.104-.038-.082-.048-.092-.052-.1-.05-.087-.053-.093-.049-.09-.05-.084-.05-.084-.054-.093-.05-.084-.05-.08-.056-.09-.052-.077-.056-.084-.056-.085-.058-.079-.052-.076-.063-.084-.057-.082-.053-.072-.058-.077-.064-.078-.053-.073-.06-.073-.064-.078-.065-.076-.065-.076-.06-.07-.055-.065-.065-.073-.066-.072-.067-.07-.066-.07-.067-.07-.061-.064-.068-.067-.072-.071-.057-.057-.068-.065-.079-.072-.068-.063-.063-.058-.069-.061-.074-.065-.075-.064-.075-.063-.069-.058-.07-.057-.075-.06-.076-.06-.07-.056-.07-.054-.077-.057-.082-.06-.071-.05-.077-.056-.077-.054-.077-.053-.083-.056-.073-.047-.078-.05-.089-.058-.078-.05-.073-.044-.09-.054-.079-.047-.073-.044-.09-.051-.086-.047-.085-.048-.08-.043-.074-.04-.092-.047-.085-.045-.087-.042-.086-.043-.087-.042-.087-.04-.08-.04-.082-.036-.088-.039-.105-.045-.082-.036-.076-.032-.094-.038-.094-.038-.088-.035-.083-.032-.095-.035-.089-.033-.089-.031-.095-.034-.096-.032-.09-.03-.089-.03-.09-.028-.084-.025-.109-.033-.084-.025-.097-.027-.097-.027-.085-.024-.09-.023-.098-.025-.098-.024-.092-.022-.092-.02-.085-.02-.105-.022-.099-.02-.092-.02-.093-.017-.093-.018-.093-.016-.105-.018-.094-.016-.087-.013-.1-.015-.094-.014-.087-.011-.101-.013-.1-.012-.089-.01-.101-.01-.095-.01-.095-.009-.089-.007-.101-.009-.096-.006-.09-.005-.102-.007-.09-.004-.09-.003-.102-.004-.097-.002-.09-.002-.09-.002h-.292l-.091.001-.085.004-.098.001-.085.004-.098.004-.093.006-.098.005-.092.006-.086.006-.086.007-.093.009-.093.008-.087.008-.087.012-.093.01-.094.012-.094.01-.08.013-.081.012-.088.014-.094.014-.089.016-.088.015-.075.016-.095.015-.083.019-.081.015-.083.02-.09.019-.082.02-.083.02-.076.019-.083.022-.084.021-.076.021-.078.023-.09.026-.07.021-.077.022-.086.029-.077.024-.07.022-.08.029-.078.028-.064.023-.072.029-.078.027-.073.03-.072.03-.072.027-.073.033-.073.03-.058.027-.073.03-.074.036-.065.028-.053.03-.08.036-.061.034-.059.027-.075.04-.053.03-.06.034-.069.039-.06.032-.06.035-.054.033-.054.032-.07.043-.054.037-.047.031-.062.041-.054.035-.048.035-.055.038-.056.04-.055.04-.048.035-.048.037-.056.041-.05.042-.04.033-.05.038-.05.048-.049.038-.034.031-.042.04-.052.05-.042.04-.041.034-.036.038-.044.046-.05.046-.036.038-.036.037-.055.064-.193.199-.198.191-.208.182-.213.174-.223.165-.228.155-.231.145-.242.135-.246.125-.255.112-.254.104-.263.091-.26.082-.27.07-.269.058-.271.048-.275.035-.272.024-.275.012h-.279l-.276-.012-.273-.022-.276-.036-.267-.045-.27-.058-.269-.069-.264-.08-.262-.093-.253-.101-.256-.115-.248-.124-.238-.134-.235-.144-.227-.154-.224-.165-.216-.173-.206-.182-.198-.19-.19-.199-.187-.208-.172-.214-.164-.222-.156-.228-.142-.234-.139-.242-.12-.245-.117-.252-.103-.256-.09-.26-.082-.263-.068-.266-.061-.271-.048-.272-.034-.274-.021-.274-.014-.276-.001-.276.012-.276.024-.274.03-.275.05-.271.056-.27.068-.268.086-.262.086-.262.104-.256.116-.25.121-.248.133-.242.15-.233.15-.23.166-.222.171-.215.183-.208.115-.122.134-.146.14-.144.132-.134.13-.132.147-.14.139-.14.144-.131.134-.122.144-.13.151-.138.15-.126.139-.116.148-.123.156-.128.146-.116.146-.115.153-.118.16-.116.15-.111.151-.108.151-.11.158-.112.164-.107.148-.1.17-.109.156-.102.153-.09.163-.105.167-.098.16-.096.167-.094.159-.087.165-.091.173-.093.157-.081.172-.091.17-.084.157-.078.177-.085.17-.083.161-.073.17-.078.181-.078.168-.073.167-.07.174-.071.172-.068.173-.067.172-.066.172-.064.186-.067.17-.06.172-.06.184-.061.176-.058.163-.054.183-.056.189-.054.168-.05.175-.05.188-.05.174-.047.18-.045.18-.048.18-.042.18-.043.178-.038.178-.04.192-.038.178-.037.177-.034.19-.034.177-.034.183-.03.176-.03.182-.028.189-.028.194-.025.181-.023.181-.023.18-.021.18-.02.194-.02.18-.017.179-.017.192-.015.19-.014.185-.01.184-.011.178-.01.184-.01.19-.006.183-.005.195-.004.189-.003.175-.002h.182l.194.001z" fill="#435466"/><path d="M441.941 447.834c-80.186 41.942-200.515 28.309-254.728-24.238-13.164-12.76-26.315-32.298-16.612-48.895 10.944-18.717 33.006-7.843 40.764-3.783 105.852 55.4 231.989-7.66 250.74-32.48-67.423 78.161-17.053 107.768-20.164 109.396z" fill="#f3f3f3"/><path d="M661.847 843.526c-112.404 43.213-271.579 12.154-337.538-59.96-16.016-17.511-31.175-43.511-16.143-63.172 16.952-22.171 45.098-5.987 54.966 0 134.641 81.689 311.095 17.367 339.242-11.542" fill="none" stroke="#435466" stroke-width="22.07" transform="matrix(.74162 -.06881 .07345 .7916 -110.853 -174.355)"/><path d="M672.574 829.814c-137.739 53.91-280.128 28.248-348.265-46.248" fill="none" stroke="#99a4a6" stroke-width="22.07" transform="matrix(.73767 -.10282 .10975 .78739 -130.094 -190.26)"/><path d="M329.915 180.255c0-3.848-1.343-11.102-2.33-15.903-3.794-18.398-11.324-36.473-21.996-51.903l-.035-.05c8.348-1.367 22.34-.522 29.813 1.75 0 0 2.066.59 3.59-.23 1.74-.935 2.34-3.046 2.066-5.105-1.564-11.74-15.119-37.097-31.931-46.39-4.91-2.712-5.365 2.835-3.35 4.743 12.55 9.883 23.122 30.01 24.774 36.456-3.38-.817-22.387-4.492-36.053.353 0 0-1.775.93-2.335 1.565-1.255 1.424-1.687 3.508-1.11 5.317.264.805 2.09 3.347 2.914 4.578 10.221 15.213 16.532 32.55 19.86 50.672.851 4.64 1.972 10.034 1.972 14.147 0 4.114 3.17 7.074 7.075 7.074 3.906 0 7.076-3.224 7.076-7.074z" fill="#435466"/><circle cx="491.685" cy="194.362" r="41.779" fill="#fe9901" transform="matrix(.64447 0 0 .64447 -6.5 -71.102)"/><circle cx="491.685" cy="194.362" r="41.779" fill="#fdfdfd" fill-opacity=".3" transform="matrix(.2366 0 0 .2366 185.728 -4.622)"/></g></svg>