<?xml version="1.0" encoding="UTF-8" standalone="no"?>
<!DOCTYPE svg PUBLIC "-//W3C//DTD SVG 1.1//EN" "http://www.w3.org/Graphics/SVG/1.1/DTD/svg11.dtd">
<svg width="100%" height="100%" viewBox="0 0 2122 600" version="1.1" xmlns="http://www.w3.org/2000/svg" xmlns:xlink="http://www.w3.org/1999/xlink" xml:space="preserve" xmlns:serif="http://www.serif.com/" style="fill-rule:evenodd;clip-rule:evenodd;stroke-linecap:round;stroke-linejoin:round;stroke-miterlimit:1.5;">
    <g transform="matrix(1,0,0,1,-4708.46,-3605.86)">
        <g id="hapi-docs-horizontal-logo-and-logotype-small" transform="matrix(2.07227,0,0,0.585938,-1969.93,3605.86)">
            <rect x="3222.75" y="0" width="1024" height="1024" style="fill:none;"/>
            <g transform="matrix(1.70164,0,0,1.94131,-2550.16,-486.321)">
                <g transform="matrix(0.322577,0,0,1,3193.05,-2475.83)">
                    <path d="M1586.59,3007.64C1586.59,3000.4 1585.48,2993.43 1582.99,2986.62C1571.44,2955.04 1532.19,2944.89 1504.87,2963.18C1490.09,2973.08 1481.76,2989.99 1481.76,3007.64C1481.76,3025.3 1490.09,3042.21 1504.87,3052.1C1532.19,3070.39 1571.44,3060.25 1582.99,3028.67C1585.48,3021.86 1586.59,3014.88 1586.59,3007.64M1463.6,2949.81L1482.6,2949.81L1482.62,2962.72L1483.2,2962.72C1505.95,2928.59 1559.86,2929.7 1587.17,2956.95C1607.45,2977.2 1612.62,3009.6 1602,3035.87C1596.92,3048.43 1588.11,3059.35 1576.76,3066.79C1564.56,3074.8 1550.15,3078.55 1535.62,3078.49C1515.63,3078.42 1494.58,3069.64 1483.2,3052.57L1482.62,3052.57L1482.68,3149.07L1463.68,3149.07L1463.6,2949.81" style="fill:rgb(67,84,102);fill-rule:nonzero;"/>
                </g>
                <g transform="matrix(0.322577,0,0,1,3006.67,-2475.83)">
                    <path d="M2651.04,3007.64C2651.04,3000.16 2649.84,2993.15 2647.44,2986.62C2645.04,2980.09 2641.63,2974.43 2637.22,2969.63C2632.8,2964.83 2627.47,2961.03 2621.23,2958.25C2614.99,2955.47 2607.94,2954.08 2600.06,2954.08C2592.19,2954.08 2585.14,2955.47 2578.9,2958.25C2572.66,2961.03 2567.38,2964.83 2563.06,2969.63C2558.74,2974.43 2555.38,2980.09 2552.98,2986.62C2550.58,2993.15 2549.38,3000.16 2549.38,3007.64C2549.38,3015.13 2550.58,3022.14 2552.98,3028.67C2555.38,3035.2 2558.74,3040.86 2563.06,3045.66C2567.38,3050.46 2572.66,3054.25 2578.9,3057.03C2585.14,3059.82 2592.19,3061.21 2600.06,3061.21C2607.94,3061.21 2614.99,3059.82 2621.23,3057.03C2627.47,3054.25 2632.8,3050.46 2637.22,3045.66C2641.63,3040.86 2645.04,3035.2 2647.44,3028.67C2649.84,3022.14 2651.04,3015.13 2651.04,3007.64ZM2671.78,3007.64C2671.78,3017.82 2670,3027.23 2666.45,3035.87C2662.9,3044.51 2657.95,3051.99 2651.62,3058.33C2645.28,3064.67 2637.74,3069.61 2629.01,3073.16C2620.27,3076.72 2610.62,3078.49 2600.06,3078.49C2589.7,3078.49 2580.14,3076.72 2571.41,3073.16C2562.67,3069.61 2555.14,3064.67 2548.8,3058.33C2542.46,3051.99 2537.52,3044.51 2533.97,3035.87C2530.42,3027.23 2528.64,3017.82 2528.64,3007.64C2528.64,2997.47 2530.42,2988.06 2533.97,2979.42C2537.52,2970.78 2542.46,2963.29 2548.8,2956.95C2555.14,2950.62 2562.67,2945.68 2571.41,2942.12C2580.14,2938.57 2589.7,2936.8 2600.06,2936.8C2610.62,2936.8 2620.27,2938.57 2629.01,2942.12C2637.74,2945.68 2645.28,2950.62 2651.62,2956.95C2657.95,2963.29 2662.9,2970.78 2666.45,2979.42C2670,2988.06 2671.78,2997.47 2671.78,3007.64Z" style="fill:rgb(67,84,102);fill-rule:nonzero;"/>
                </g>
                <g transform="matrix(0.322577,0,0,1,3229.45,-2484.41)">
                    <circle cx="1522.77" cy="2897.27" r="13.145" style="fill:rgb(67,84,102);"/>
                </g>
                <g transform="matrix(0.233236,0,0,0.723038,3313.09,-1621.16)">
                    <circle cx="1522.77" cy="2897.27" r="13.145" style="fill:rgb(67,84,102);"/>
                </g>
                <g transform="matrix(0.233236,0,0,0.723038,3313.09,-1422.12)">
                    <circle cx="1522.77" cy="2897.27" r="13.145" style="fill:rgb(67,84,102);"/>
                </g>
                <g transform="matrix(0.322577,0,0,1,3225.01,-2475.83)">
                    <path d="M1326.44,3065.25L1326.5,3052.57L1325.93,3052.57C1314.55,3069.64 1293.5,3078.42 1273.51,3078.49C1258.98,3078.55 1244.57,3074.8 1232.36,3066.79C1221.02,3059.35 1212.21,3048.43 1207.13,3035.87C1196.5,3009.6 1201.68,2977.2 1221.96,2956.95C1249.27,2929.7 1303.17,2928.59 1325.93,2962.72L1326.5,2962.72L1326.52,2950.28C1326.5,2950.02 1326.49,2949.77 1326.49,2949.51C1326.49,2944.26 1330.75,2940 1336,2940C1341.24,2940 1345.5,2944.26 1345.5,2949.51C1345.5,2949.61 1345.5,2949.71 1345.5,2949.81L1345.53,2949.81L1345.45,3064.28C1345.49,3064.6 1345.5,3064.92 1345.5,3065.25C1345.5,3070.5 1341.24,3074.76 1336,3074.76C1330.75,3074.76 1326.49,3070.5 1326.49,3065.25L1326.44,3065.25ZM1222.54,3007.64C1222.54,3000.4 1223.65,2993.43 1226.14,2986.62C1237.68,2955.04 1276.94,2944.89 1304.26,2963.18C1319.04,2973.08 1327.37,2989.99 1327.37,3007.64C1327.37,3025.3 1319.04,3042.21 1304.26,3052.1C1276.94,3070.39 1237.68,3060.25 1226.14,3028.67C1223.65,3021.86 1222.54,3014.88 1222.54,3007.64Z" style="fill:rgb(67,84,102);"/>
                </g>
                <g transform="matrix(0.322577,0,0,1,3226.71,-2475.83)">
                    <path d="M1061.97,2867.1C1061.97,2866.99 1061.96,2866.88 1061.96,2866.77C1061.96,2861.53 1066.22,2857.27 1071.47,2857.27C1076.71,2857.27 1080.97,2861.53 1080.97,2866.77C1080.97,2866.88 1080.97,2866.99 1080.97,2867.1L1080.97,2867.1L1080.97,2961.85L1081.55,2961.85C1083.66,2958.2 1086.35,2954.84 1089.61,2951.77C1092.88,2948.7 1096.53,2946.06 1100.56,2943.85C1104.59,2941.64 1108.86,2939.91 1113.37,2938.67C1117.88,2937.42 1122.35,2936.8 1126.77,2936.8C1144.05,2936.8 1156.81,2941.36 1165.07,2950.47C1173.33,2959.6 1177.45,2972.6 1177.45,2989.5L1177.45,3065.81C1177.45,3071.06 1173.19,3075.32 1167.95,3075.32C1162.7,3075.32 1158.44,3071.06 1158.44,3065.81C1158.44,3065.81 1158.44,3000.44 1158.44,3000.44C1158.44,2985.47 1155.85,2973.99 1150.67,2966.03C1145.49,2958.06 1135.88,2954.08 1121.87,2954.08C1120.91,2954.08 1118.22,2954.46 1113.81,2955.23C1109.39,2955.99 1104.73,2958.11 1099.84,2961.56C1094.94,2965.02 1090.57,2970.2 1086.73,2977.12C1082.89,2984.03 1080.97,2993.63 1080.97,3005.91L1080.97,3066.16L1080.97,3066.16C1080.79,3071.24 1076.6,3075.32 1071.47,3075.32C1066.34,3075.32 1062.15,3071.24 1061.97,3066.16L1061.96,3066.16L1061.96,2867.1L1061.97,2867.1Z" style="fill:rgb(67,84,102);"/>
                </g>
                <g transform="matrix(0.322577,0,0,1,3231.15,-2475.83)">
                    <path d="M1508.23,2949.51C1508.23,2944.26 1512.49,2940 1517.74,2940C1522.98,2940 1527.24,2944.26 1527.24,2949.51L1527.24,3065.78L1527.23,3065.78C1526.95,3070.78 1522.8,3074.76 1517.74,3074.76C1512.67,3074.76 1508.52,3070.78 1508.25,3065.78L1508.23,3065.78L1508.23,2949.51Z" style="fill:rgb(67,84,102);"/>
                </g>
                <g transform="matrix(0.322577,0,0,1,3046.48,-2475.83)">
                    <path d="M2680.2,3063.03C2680.15,3063.11 2680.08,3063.18 2680.01,3063.25C2675.43,3067.15 2670.53,3070.27 2665.29,3072.59C2656.85,3076.33 2648.01,3078.3 2638.8,3078.49C2627.85,3078.68 2617.97,3077 2609.13,3073.45C2600.3,3069.9 2592.76,3064.95 2586.53,3058.62C2580.28,3052.28 2575.53,3044.75 2572.27,3036.01C2569.01,3027.28 2567.37,3017.82 2567.37,3007.64C2567.37,2997.47 2569.01,2988.01 2572.27,2979.28C2575.53,2970.54 2580.28,2963 2586.53,2956.67C2592.76,2950.33 2600.3,2945.39 2609.13,2941.84C2617.97,2938.28 2627.85,2936.6 2638.8,2936.8C2648.01,2936.99 2656.85,2938.95 2665.29,2942.7C2670.63,2945.07 2675.1,2947.92 2679.75,2951.93C2680.16,2952.27 2680.55,2952.66 2680.91,2953.08C2684.21,2956.99 2683.72,2962.84 2679.81,2966.14C2676.12,2969.26 2670.69,2968.99 2667.32,2965.66C2665.01,2963.58 2661.54,2960.87 2658.81,2959.26C2652.96,2955.8 2646.28,2954.08 2638.8,2954.08C2630.93,2953.88 2623.87,2955.13 2617.63,2957.82C2611.39,2960.51 2606.06,2964.25 2601.64,2969.05C2597.23,2973.85 2593.87,2979.56 2591.57,2986.19C2589.26,2992.81 2588.11,2999.96 2588.11,3007.64C2588.11,3015.32 2589.26,3022.47 2591.57,3029.1C2593.87,3035.72 2597.23,3041.43 2601.64,3046.24C2606.06,3051.03 2611.39,3054.78 2617.63,3057.47C2623.87,3060.16 2630.93,3061.4 2638.8,3061.21C2646.28,3061.21 2652.96,3059.48 2658.81,3056.03C2661.69,3054.33 2664.63,3052.22 2666.93,3050.12C2667.21,3049.8 2667.52,3049.5 2667.85,3049.22C2671.76,3045.92 2677.61,3046.41 2680.91,3050.32C2684.1,3054.09 2683.74,3059.68 2680.2,3063.03Z" style="fill:rgb(67,84,102);"/>
                </g>
                <g transform="matrix(0.322577,0,0,1,3044.25,-2475.83)">
                    <path d="M2726.57,3048.91C2729.01,3051.38 2732.13,3053.9 2735.08,3055.74C2740.93,3059.39 2747.89,3061.21 2755.96,3061.21C2759.8,3061.21 2763.64,3060.78 2767.48,3059.91C2771.32,3059.05 2774.73,3057.71 2777.7,3055.88C2780.68,3054.06 2783.08,3051.71 2784.9,3048.83C2786.73,3045.95 2787.64,3042.59 2787.64,3038.75C2787.64,3032.03 2785.14,3027.18 2780.15,3024.2C2775.16,3021.23 2769.11,3018.88 2762.01,3017.15L2743.58,3012.83C2741.27,3012.25 2738.15,3011.29 2734.22,3009.95C2730.28,3008.6 2726.44,3006.59 2722.7,3003.9C2718.95,3001.21 2715.74,2997.71 2713.05,2993.39C2710.36,2989.07 2709.01,2983.74 2709.01,2977.4C2709.01,2970.49 2710.41,2964.44 2713.19,2959.26C2715.97,2954.08 2719.72,2949.85 2724.42,2946.59C2729.13,2943.32 2734.45,2940.88 2740.41,2939.24C2746.36,2937.61 2752.5,2936.8 2758.84,2936.8C2768.25,2936.8 2776.98,2938.62 2785.05,2942.27C2788.92,2944.02 2793.14,2947.19 2796.41,2950.49C2796.72,2950.78 2797.02,2951.09 2797.3,2951.43C2797.34,2951.46 2797.36,2951.5 2797.39,2951.53C2800.94,2955.84 2800.37,2962.22 2796.09,2965.83C2791.95,2969.33 2785.84,2968.96 2782.14,2965.12C2782.06,2965.08 2781.99,2965.02 2781.93,2964.96C2779.96,2962.66 2777.74,2960.66 2775.26,2958.97C2770.45,2955.71 2764.6,2954.08 2757.69,2954.08C2754.42,2954.08 2751.11,2954.46 2747.75,2955.23C2744.39,2955.99 2741.37,2957.2 2738.68,2958.83C2735.99,2960.46 2733.83,2962.52 2732.2,2965.02C2730.57,2967.51 2729.75,2970.59 2729.75,2974.24C2729.75,2980.57 2731.96,2985.18 2736.38,2988.06C2740.79,2990.94 2747.41,2993.43 2756.25,2995.55L2775.54,3000.16C2784.95,3002.27 2792.78,3006.54 2799.01,3012.97C2805.26,3019.4 2808.38,3027.42 2808.38,3037.02C2808.38,3044.32 2806.89,3050.6 2803.91,3055.88C2800.93,3061.16 2797,3065.48 2792.1,3068.84C2787.21,3072.2 2781.59,3074.65 2775.26,3076.19C2768.92,3077.72 2762.49,3078.49 2755.96,3078.49C2745.59,3078.49 2735.94,3076.52 2727.01,3072.59C2722.17,3070.45 2717.18,3066.88 2712.99,3062.95C2712.48,3062.55 2712.01,3062.09 2711.57,3061.58C2711.51,3061.52 2711.46,3061.46 2711.42,3061.39C2708.09,3057.26 2708.66,3051.19 2712.74,3047.74C2716.86,3044.26 2723.02,3044.76 2726.53,3048.86L2726.57,3048.91Z" style="fill:rgb(67,84,102);"/>
                </g>
                <g transform="matrix(0.322577,0,0,1,3049.75,-2475.83)">
                    <path d="M2357.04,2866.29C2357.31,2861.29 2361.46,2857.31 2366.53,2857.31C2371.78,2857.31 2376.04,2861.57 2376.04,2866.81C2376.04,2867.14 2376.02,2867.47 2375.99,2867.79L2376.07,3065.55L2376.03,3065.55C2376.03,3065.65 2376.04,3065.75 2376.04,3065.85C2376.04,3071.1 2371.78,3075.36 2366.53,3075.36C2361.29,3075.36 2357.03,3071.1 2357.03,3065.85C2357.03,3065.59 2357.04,3065.34 2357.06,3065.08L2357.04,3052.64L2356.46,3052.64C2333.71,3086.77 2279.8,3085.66 2252.5,3058.4C2232.22,3038.16 2227.04,3005.76 2237.66,2979.49C2242.74,2966.93 2251.56,2956.01 2262.9,2948.57C2275.11,2940.56 2289.51,2936.81 2304.05,2936.87C2324.04,2936.94 2345.08,2945.71 2356.46,2962.79L2357.04,2962.79L2356.98,2866.29L2357.04,2866.29ZM2253.07,3007.72C2253.07,3014.96 2254.18,3021.93 2256.67,3028.74C2268.22,3060.32 2307.47,3070.47 2334.79,3052.18C2349.57,3042.28 2357.9,3025.37 2357.9,3007.72C2357.9,2990.06 2349.57,2973.15 2334.79,2963.26C2307.47,2944.97 2268.22,2955.11 2256.67,2986.69C2254.18,2993.5 2253.07,3000.47 2253.07,3007.72Z" style="fill:rgb(67,84,102);"/>
                </g>
            </g>
            <g transform="matrix(0.749993,0,0,1.09169,797.44,-93.1154)">
                <g transform="matrix(0.411576,0,0,1,2341.15,0.492186)">
                    <path d="M2841.09,273.563C2846.57,269.219 2853.78,270.378 2855.69,278.784C2871.36,347.778 2905.52,598.383 2899.04,617.162C2898.75,618.017 2898.58,618.245 2897.55,619.577C2889.14,630.274 2877.58,638.263 2865.82,645.738C2824.79,671.831 2777.89,688.714 2730.46,698.702C2653.71,714.863 2571.58,710.07 2501.27,675.256C2488.86,669.112 2476.38,661.701 2462.19,662.525C2448.82,663.301 2438.24,676.6 2438.76,691.17C2439.12,700.897 2443.43,710.193 2448.67,718.453L2449.73,720.894C2449.95,723.208 2450.29,723.893 2449.4,726.137C2447.41,731.151 2440.3,733.047 2436.08,729.559C2434.75,728.46 2433.81,726.756 2433.8,726.734C2413.69,694.564 2409.43,654.997 2408.4,616.083C2406.64,549.155 2415.28,482.095 2427.3,416.379C2432.73,386.708 2438.55,357.071 2447.5,327.991C2450.04,319.731 2453.01,311.637 2458.71,304.781C2467,294.815 2479.01,288.05 2491.84,286.257C2505.91,284.291 2520.24,288.596 2532.38,295.73C2564.91,314.686 2601.41,326.21 2638.88,329.67C2690.64,334.45 2743.45,324.896 2790.69,304.112C2808.72,296.178 2825.69,285.793 2841.09,273.563Z" style="fill:rgb(77,186,135);fill-rule:nonzero;"/>
                </g>
                <g transform="matrix(-0.315495,0.441057,-0.254871,-0.878154,4052.82,9.46269)">
                    <path d="M1621.58,218.559L1621.31,218.417L1621.02,218.263L1620.74,218.112L1620.47,217.964L1620.2,217.808L1619.93,217.652L1619.67,217.499L1619.39,217.337L1619.12,217.168L1618.85,217.002L1618.58,216.83L1618.32,216.66L1618.06,216.494L1617.8,216.313L1617.54,216.138L1617.29,215.962L1617.02,215.775L1616.77,215.592L1616.52,215.41L1616.26,215.217L1616.01,215.022L1615.77,214.836L1615.52,214.637L1615.27,214.433L1615.03,214.239L1614.79,214.037L1614.55,213.83L1614.32,213.627L1614.08,213.419L1613.85,213.206L1613.61,212.991L1613.38,212.771L1613.16,212.559L1612.93,212.338L1612.7,212.108L1612.48,211.89L1612.26,211.664L1612.04,211.434L1611.82,211.196L1611.61,210.959L1611.41,210.737L1611.19,210.495L1610.98,210.25L1610.78,210.016L1610.58,209.769L1610.38,209.52L1610.17,209.268L1609.98,209.021L1609.79,208.772L1609.62,208.548L1609.41,208.248L1609.2,207.94L1609.02,207.625L1608.85,207.304L1608.7,206.976L1608.56,206.642L1608.44,206.303L1608.33,205.959L1608.24,205.611L1608.17,205.259L1608.11,204.904L1608.08,204.546L1608.05,204.186L1608.05,203.824L1608.06,203.461L1608.09,203.097L1608.13,202.733L1608.2,202.37L1608.28,202.008L1608.37,201.647L1608.49,201.288L1608.62,200.931L1608.76,200.578L1608.92,200.229L1609.1,199.883L1609.29,199.542L1609.5,199.206L1609.72,198.876L1609.95,198.552L1610.2,198.234L1610.47,197.924L1610.75,197.621L1611.04,197.326L1611.34,197.039L1611.65,196.761L1611.98,196.492L1612.32,196.233L1612.67,195.984L1613.03,195.745L1613.39,195.517L1613.77,195.3L1614.16,195.094L1614.55,194.9L1614.95,194.718L1615.36,194.548L1615.78,194.39L1616.19,194.245L1616.62,194.113L1617.05,193.994L1617.48,193.889L1617.92,193.796L1618.36,193.718L1618.8,193.653L1619.24,193.601L1619.68,193.564L1620.12,193.54L1620.56,193.531L1621,193.535L1621.44,193.553L1621.88,193.585L1622.31,193.631L1622.74,193.691L1623.16,193.765L1623.58,193.852L1623.99,193.952L1624.39,194.066L1624.79,194.193L1625.18,194.333L1625.56,194.486L1625.94,194.651L1626.3,194.829L1626.66,195.018L1627,195.22L1627.33,195.432L1627.66,195.656L1627.97,195.891L1628.26,196.136L1628.55,196.392L1628.82,196.657L1629.08,196.931L1629.32,197.215L1629.55,197.507L1629.67,197.664L1629.77,197.793L1629.87,197.92L1629.97,198.039L1630.06,198.155L1630.16,198.272L1630.26,198.397L1630.36,198.508L1630.45,198.618L1630.57,198.744L1630.67,198.852L1630.76,198.956L1630.87,199.063L1630.97,199.17L1631.08,199.283L1631.18,199.38L1631.28,199.483L1631.4,199.59L1631.5,199.687L1631.61,199.784L1631.71,199.881L1631.82,199.978L1631.94,200.078L1632.04,200.169L1632.15,200.262L1632.27,200.36L1632.38,200.444L1632.49,200.53L1632.61,200.625L1632.72,200.708L1632.82,200.789L1632.94,200.877L1633.06,200.962L1633.17,201.04L1633.29,201.123L1633.41,201.206L1633.52,201.279L1633.65,201.363L1633.77,201.442L1633.88,201.512L1634,201.588L1634.11,201.655L1634.23,201.727L1634.37,201.804L1634.49,201.874L1634.61,201.942L1634.74,202.014L1634.86,202.08L1634.97,202.14L1635.1,202.209L1635.23,202.276L1635.36,202.338L1635.48,202.397L1635.6,202.456L1635.73,202.519L1635.87,202.58L1635.99,202.635L1636.11,202.69L1636.24,202.748L1636.38,202.804L1636.51,202.859L1636.64,202.914L1636.77,202.963L1636.9,203.014L1637.03,203.065L1637.17,203.115L1637.3,203.164L1637.43,203.211L1637.57,203.258L1637.7,203.303L1637.84,203.348L1637.97,203.391L1638.11,203.435L1638.25,203.477L1638.38,203.517L1638.53,203.559L1638.66,203.598L1638.79,203.633L1638.92,203.669L1639.08,203.709L1639.22,203.745L1639.35,203.776L1639.49,203.812L1639.64,203.845L1639.77,203.876L1639.91,203.906L1640.06,203.937L1640.2,203.965L1640.35,203.995L1640.49,204.023L1640.62,204.047L1640.77,204.072L1640.92,204.098L1641.05,204.119L1641.2,204.143L1641.35,204.166L1641.5,204.187L1641.64,204.206L1641.78,204.224L1641.93,204.244L1642.07,204.26L1642.22,204.276L1642.36,204.291L1642.5,204.305L1642.66,204.32L1642.8,204.332L1642.95,204.344L1643.11,204.356L1643.24,204.365L1643.39,204.374L1643.55,204.383L1643.68,204.39L1643.83,204.396L1643.98,204.402L1644.12,204.407L1644.27,204.41L1644.43,204.413L1644.57,204.416L1644.72,204.417L1644.86,204.417L1645.01,204.417L1645.16,204.415L1645.3,204.413L1645.45,204.41L1645.6,204.406L1645.76,204.401L1645.89,204.396L1646.03,204.389L1646.2,204.381L1646.33,204.374L1646.47,204.365L1646.62,204.355L1646.77,204.344L1646.92,204.332L1647.05,204.321L1647.19,204.308L1647.35,204.292L1647.5,204.277L1647.62,204.265L1647.77,204.247L1647.93,204.228L1648.06,204.212L1648.21,204.192L1648.36,204.171L1648.49,204.153L1648.62,204.133L1648.77,204.11L1648.91,204.088L1649.05,204.064L1649.19,204.04L1649.33,204.016L1649.48,203.988L1649.6,203.965L1649.74,203.937L1649.89,203.907L1650.01,203.882L1650.14,203.854L1650.29,203.821L1650.43,203.79L1650.55,203.761L1650.68,203.731L1650.79,203.702L1650.94,203.666L1651.09,203.626L1651.21,203.597L1651.33,203.563L1651.48,203.522L1651.59,203.49L1651.71,203.456L1651.86,203.412L1651.98,203.376L1652.09,203.34L1652.21,203.304L1652.32,203.267L1652.47,203.219L1652.59,203.178L1652.7,203.14L1652.81,203.101L1652.93,203.059L1653.06,203.011L1653.17,202.97L1653.29,202.926L1653.4,202.882L1653.51,202.838L1653.63,202.793L1653.74,202.747L1653.84,202.704L1653.95,202.658L1654.06,202.611L1654.17,202.564L1654.27,202.517L1654.38,202.469L1654.48,202.421L1654.56,202.383L1654.67,202.334L1654.79,202.273L1654.87,202.232L1654.97,202.181L1655.07,202.131L1655.15,202.089L1655.27,202.026L1655.37,201.974L1655.44,201.932L1655.54,201.877L1655.63,201.824L1655.7,201.785L1655.78,201.74L1655.87,201.687L1655.98,201.618L1656.05,201.573L1656.12,201.531L1656.2,201.476L1656.29,201.418L1656.38,201.36L1656.44,201.32L1656.51,201.275L1656.59,201.216L1656.68,201.157L1656.74,201.114L1656.79,201.071L1656.88,201.009L1656.93,200.967L1656.99,200.924L1657.06,200.863L1657.14,200.8L1657.2,200.757L1657.25,200.714L1657.32,200.65L1657.38,200.605L1657.42,200.562L1657.5,200.498L1657.55,200.453L1657.59,200.41L1657.66,200.345L1657.71,200.301L1657.73,200.277L1657.8,200.21L1657.86,200.145L1657.88,200.121L1657.93,200.076L1657.99,200.009L1658.03,199.963L1658.07,199.918L1658.11,199.873L1658.15,199.827L1658.19,199.781L1658.22,199.735L1658.28,199.666L1658.3,199.642L1658.33,199.596L1658.37,199.549L1658.4,199.502L1658.43,199.455L1658.47,199.407L1658.5,199.359L1658.55,199.287L1658.77,198.958L1659.01,198.635L1659.26,198.319L1659.53,198.01L1659.81,197.708L1660.1,197.415L1660.41,197.13L1660.73,196.854L1661.06,196.587L1661.4,196.33L1661.75,196.083L1662.11,195.846L1662.48,195.62L1662.86,195.405L1663.25,195.202L1663.64,195.01L1664.04,194.83L1664.45,194.663L1664.87,194.508L1665.29,194.366L1665.72,194.236L1666.14,194.12L1666.58,194.017L1667.02,193.928L1667.45,193.852L1667.89,193.789L1668.34,193.741L1668.78,193.706L1669.22,193.686L1669.66,193.679L1670.1,193.686L1670.54,193.707L1670.97,193.742L1671.4,193.791L1671.83,193.853L1672.25,193.93L1672.67,194.019L1673.08,194.123L1673.48,194.239L1673.88,194.369L1674.27,194.512L1674.65,194.667L1675.02,194.835L1675.38,195.015L1675.74,195.207L1676.08,195.41L1676.41,195.626L1676.73,195.852L1677.04,196.089L1677.33,196.336L1677.61,196.593L1677.88,196.86L1678.14,197.137L1678.38,197.422L1678.61,197.716L1678.82,198.017L1679.02,198.326L1679.2,198.643L1679.37,198.966L1679.52,199.295L1679.65,199.63L1679.77,199.97L1679.87,200.315L1679.96,200.663L1680.03,201.016L1680.08,201.372L1680.11,201.73L1680.13,202.091L1680.13,202.453L1680.12,202.816L1680.08,203.18L1680.04,203.544L1679.97,203.907L1679.89,204.269L1679.79,204.63L1679.67,204.988L1679.54,205.344L1679.39,205.696L1679.23,206.045L1679.05,206.39L1678.85,206.73L1678.64,207.065L1678.5,207.282L1678.34,207.521L1678.17,207.759L1678.01,207.997L1677.84,208.233L1677.66,208.467L1677.48,208.7L1677.29,208.955L1677.12,209.162L1676.93,209.391L1676.75,209.617L1676.56,209.843L1676.36,210.067L1676.16,210.29L1675.96,210.51L1675.78,210.708L1675.58,210.926L1675.35,211.164L1675.16,211.358L1674.97,211.549L1674.73,211.781L1674.51,211.992L1674.31,212.179L1674.09,212.387L1673.87,212.591L1673.66,212.774L1673.43,212.976L1673.2,213.175L1672.99,213.353L1672.75,213.551L1672.51,213.746L1672.3,213.919L1672.08,214.093L1671.83,214.284L1671.58,214.472L1671.36,214.638L1671.11,214.824L1670.86,215.006L1670.62,215.17L1670.39,215.333L1670.14,215.508L1669.87,215.686L1669.63,215.843L1669.39,215.999L1669.15,216.156L1668.88,216.324L1668.62,216.487L1668.39,216.625L1668.14,216.776L1667.87,216.933L1667.59,217.095L1667.34,217.24L1667.09,217.381L1666.81,217.534L1666.55,217.674L1666.31,217.8L1666.03,217.948L1665.76,218.083L1665.5,218.218L1665.21,218.358L1664.97,218.478L1664.7,218.607L1664.41,218.745L1664.14,218.87L1663.86,218.995L1663.59,219.116L1663.32,219.237L1663.04,219.355L1662.76,219.473L1662.48,219.59L1662.2,219.704L1661.92,219.816L1661.64,219.926L1661.36,220.034L1661.08,220.141L1660.79,220.248L1660.52,220.346L1660.23,220.448L1659.94,220.55L1659.65,220.651L1659.36,220.747L1659.1,220.835L1658.8,220.931L1658.5,221.024L1658.2,221.117L1657.91,221.206L1657.64,221.286L1657.34,221.373L1657.03,221.46L1656.76,221.535L1656.46,221.617L1656.15,221.698L1655.87,221.768L1655.59,221.84L1655.28,221.917L1654.98,221.989L1654.67,222.06L1654.38,222.126L1654.09,222.189L1653.79,222.255L1653.47,222.32L1653.18,222.378L1652.89,222.437L1652.57,222.497L1652.28,222.55L1651.98,222.604L1651.68,222.656L1651.38,222.706L1651.07,222.755L1650.77,222.802L1650.46,222.848L1650.14,222.893L1649.85,222.933L1649.55,222.973L1649.23,223.013L1648.95,223.047L1648.65,223.082L1648.31,223.118L1648.01,223.148L1647.72,223.176L1647.41,223.205L1647.09,223.232L1646.79,223.256L1646.47,223.279L1646.17,223.299L1645.86,223.319L1645.54,223.336L1645.25,223.351L1644.94,223.365L1644.61,223.378L1644.31,223.387L1644.01,223.396L1643.69,223.402L1643.38,223.407L1643.07,223.41L1642.76,223.411L1642.45,223.41L1642.13,223.408L1641.82,223.403L1641.52,223.397L1641.21,223.389L1640.89,223.379L1640.58,223.367L1640.27,223.354L1639.95,223.338L1639.65,223.32L1639.34,223.302L1639.01,223.279L1638.71,223.257L1638.4,223.232L1638.08,223.204L1637.78,223.176L1637.48,223.146L1637.16,223.112L1636.85,223.078L1636.53,223.04L1636.23,223.003L1635.91,222.962L1635.6,222.918L1635.29,222.874L1634.98,222.827L1634.69,222.781L1634.37,222.729L1634.06,222.677L1633.76,222.623L1633.43,222.564L1633.13,222.505L1632.83,222.447L1632.51,222.382L1632.21,222.319L1631.9,222.252L1631.59,222.181L1631.29,222.112L1630.99,222.04L1630.68,221.963L1630.38,221.885L1630.08,221.809L1629.78,221.727L1629.47,221.641L1629.16,221.554L1628.87,221.469L1628.56,221.378L1628.26,221.285L1627.97,221.192L1627.67,221.095L1627.37,220.996L1627.07,220.895L1626.77,220.792L1626.48,220.687L1626.18,220.58L1625.89,220.47L1625.6,220.359L1625.3,220.246L1625,220.126L1624.71,220.008L1624.43,219.89L1624.14,219.768L1623.86,219.644L1623.56,219.515L1623.27,219.382L1622.99,219.252L1622.71,219.121L1622.42,218.982L1622.14,218.842L1621.85,218.699L1621.58,218.559Z" style="fill:rgb(67,84,102);"/>
                </g>
                <g transform="matrix(-0.389308,-0.266301,0.123456,-1.17986,4006.85,1236.02)">
                    <path d="M1654.57,221.08L1654.28,221.143L1653.98,221.205L1653.69,221.262L1653.42,221.316L1653.12,221.373L1652.82,221.428L1652.54,221.479L1652.24,221.531L1651.95,221.579L1651.66,221.625L1651.36,221.672L1651.06,221.717L1650.77,221.758L1650.48,221.798L1650.17,221.838L1649.88,221.874L1649.59,221.909L1649.29,221.944L1648.98,221.977L1648.69,222.007L1648.38,222.037L1648.08,222.064L1647.8,222.088L1647.49,222.112L1647.18,222.135L1646.89,222.155L1646.58,222.174L1646.29,222.19L1645.99,222.205L1645.68,222.219L1645.37,222.231L1645.07,222.241L1644.77,222.249L1644.47,222.255L1644.16,222.26L1643.85,222.263L1643.56,222.264L1643.25,222.263L1642.94,222.26L1642.65,222.256L1642.34,222.251L1642.03,222.242L1641.72,222.233L1641.41,222.22L1641.11,222.207L1640.81,222.192L1640.5,222.175L1640.2,222.156L1639.89,222.136L1639.58,222.112L1639.27,222.087L1638.97,222.061L1638.68,222.034L1638.35,222.002L1638.04,221.968L1637.76,221.937L1637.45,221.901L1637.13,221.862L1636.83,221.821L1636.52,221.779L1636.22,221.735L1635.91,221.69L1635.6,221.641L1635.3,221.591L1635.01,221.543L1634.69,221.486L1634.38,221.428L1634.08,221.371L1633.78,221.311L1633.48,221.252L1633.17,221.186L1632.86,221.118L1632.57,221.053L1632.25,220.98L1631.95,220.906L1631.66,220.836L1631.36,220.76L1631.05,220.678L1630.76,220.599L1630.45,220.516L1630.15,220.43L1629.86,220.344L1629.55,220.253L1629.26,220.163L1628.96,220.07L1628.66,219.973L1628.36,219.873L1628.07,219.774L1627.78,219.672L1627.48,219.566L1627.18,219.458L1626.89,219.35L1626.61,219.241L1626.32,219.13L1626.03,219.014L1625.73,218.892L1625.44,218.771L1625.16,218.655L1624.88,218.531L1624.57,218.397L1624.3,218.271L1624.01,218.141L1623.72,218.004L1623.44,217.869L1623.16,217.731L1622.89,217.592L1622.61,217.451L1622.34,217.308L1622.05,217.155L1621.77,217.003L1621.5,216.853L1621.23,216.702L1620.97,216.549L1620.69,216.388L1620.42,216.227L1620.15,216.064L1619.89,215.898L1619.62,215.725L1619.36,215.559L1619.11,215.392L1618.84,215.215L1618.58,215.034L1618.33,214.859L1618.07,214.68L1617.81,214.489L1617.56,214.308L1617.31,214.118L1617.06,213.926L1616.82,213.74L1616.57,213.543L1616.32,213.34L1616.08,213.142L1615.85,212.945L1615.6,212.737L1615.37,212.539L1615.14,212.331L1614.89,212.11L1614.67,211.907L1614.45,211.693L1614.21,211.467L1613.99,211.249L1613.77,211.035L1613.55,210.813L1613.33,210.583L1613.11,210.353L1612.9,210.126L1612.68,209.892L1612.47,209.654L1612.27,209.424L1612.07,209.19L1611.86,208.947L1611.66,208.702L1611.46,208.461L1611.26,208.212L1611.07,207.963L1610.87,207.711L1610.7,207.487L1610.49,207.184L1610.29,206.873L1610.1,206.555L1609.94,206.23L1609.79,205.9L1609.66,205.565L1609.54,205.225L1609.45,204.881L1609.37,204.534L1609.31,204.184L1609.27,203.832L1609.25,203.478L1609.24,203.124L1609.26,202.77L1609.29,202.416L1609.35,202.063L1609.42,201.712L1609.51,201.363L1609.61,201.017L1609.74,200.675L1609.88,200.337L1610.04,200.004L1610.22,199.677L1610.42,199.355L1610.63,199.04L1610.86,198.732L1611.1,198.432L1611.36,198.141L1611.63,197.858L1611.92,197.584L1612.22,197.32L1612.53,197.067L1612.86,196.824L1613.2,196.592L1613.55,196.372L1613.91,196.164L1614.29,195.969L1614.67,195.786L1615.06,195.616L1615.46,195.459L1615.86,195.316L1616.28,195.188L1616.7,195.073L1617.12,194.972L1617.55,194.886L1617.98,194.815L1618.42,194.758L1618.85,194.717L1619.29,194.69L1619.73,194.678L1620.17,194.682L1620.61,194.7L1621.04,194.734L1621.48,194.782L1621.91,194.846L1622.33,194.924L1622.75,195.016L1623.17,195.123L1623.58,195.245L1623.98,195.38L1624.37,195.529L1624.76,195.692L1625.13,195.867L1625.5,196.056L1625.85,196.258L1626.2,196.471L1626.53,196.696L1626.85,196.933L1627.15,197.181L1627.45,197.439L1627.73,197.707L1627.99,197.985L1628.24,198.272L1628.47,198.568L1628.59,198.725L1628.69,198.852L1628.78,198.976L1628.88,199.098L1628.98,199.223L1629.08,199.341L1629.18,199.457L1629.28,199.578L1629.39,199.7L1629.49,199.812L1629.59,199.922L1629.7,200.036L1629.8,200.144L1629.9,200.248L1630.01,200.356L1630.12,200.47L1630.23,200.575L1630.33,200.669L1630.44,200.77L1630.56,200.88L1630.65,200.969L1630.76,201.066L1630.88,201.17L1630.99,201.261L1631.11,201.358L1631.22,201.452L1631.33,201.538L1631.44,201.625L1631.56,201.721L1631.67,201.807L1631.78,201.89L1631.9,201.981L1632.01,202.058L1632.13,202.142L1632.25,202.228L1632.37,202.305L1632.48,202.381L1632.61,202.464L1632.73,202.545L1632.84,202.616L1632.96,202.691L1633.09,202.765L1633.2,202.837L1633.32,202.906L1633.45,202.98L1633.58,203.052L1633.71,203.123L1633.83,203.189L1633.94,203.25L1634.07,203.317L1634.2,203.383L1634.33,203.447L1634.46,203.511L1634.59,203.573L1634.71,203.631L1634.84,203.691L1634.98,203.753L1635.09,203.804L1635.22,203.86L1635.37,203.922L1635.5,203.976L1635.62,204.026L1635.75,204.078L1635.89,204.132L1636.03,204.185L1636.17,204.237L1636.3,204.285L1636.43,204.331L1636.57,204.379L1636.71,204.427L1636.84,204.471L1636.97,204.513L1637.11,204.557L1637.26,204.602L1637.39,204.641L1637.53,204.683L1637.67,204.723L1637.81,204.761L1637.96,204.801L1638.09,204.835L1638.23,204.87L1638.39,204.91L1638.53,204.944L1638.66,204.974L1638.82,205.009L1638.96,205.04L1639.09,205.068L1639.25,205.1L1639.4,205.129L1639.55,205.158L1639.69,205.184L1639.82,205.207L1639.98,205.234L1640.13,205.259L1640.28,205.281L1640.43,205.304L1640.58,205.326L1640.73,205.346L1640.87,205.366L1641.01,205.383L1641.16,205.4L1641.34,205.42L1641.48,205.435L1641.61,205.448L1641.77,205.463L1641.93,205.477L1642.08,205.489L1642.22,205.5L1642.38,205.51L1642.53,205.52L1642.68,205.528L1642.84,205.536L1643,205.543L1643.15,205.549L1643.3,205.554L1643.45,205.558L1643.59,205.56L1643.77,205.563L1643.91,205.564L1644.07,205.564L1644.23,205.564L1644.37,205.563L1644.52,205.56L1644.68,205.557L1644.84,205.553L1644.99,205.548L1645.14,205.542L1645.28,205.536L1645.45,205.527L1645.61,205.518L1645.76,205.509L1645.91,205.498L1646.06,205.488L1646.21,205.476L1646.38,205.461L1646.53,205.448L1646.67,205.434L1646.83,205.418L1646.98,205.402L1647.12,205.386L1647.28,205.366L1647.44,205.347L1647.58,205.328L1647.74,205.306L1647.89,205.284L1648.04,205.262L1648.18,205.24L1648.34,205.216L1648.49,205.19L1648.63,205.165L1648.79,205.138L1648.93,205.112L1649.07,205.085L1649.23,205.053L1649.38,205.022L1649.52,204.993L1649.66,204.964L1649.8,204.934L1649.95,204.899L1650.11,204.862L1650.25,204.83L1650.38,204.796L1650.53,204.76L1650.66,204.725L1650.81,204.686L1650.95,204.647L1651.1,204.607L1651.24,204.567L1651.37,204.53L1651.5,204.491L1651.64,204.448L1651.78,204.405L1651.91,204.365L1652.04,204.32L1652.18,204.275L1652.32,204.228L1652.46,204.182L1652.58,204.139L1652.7,204.095L1652.83,204.047L1652.97,203.998L1653.1,203.947L1653.23,203.898L1653.34,203.852L1653.48,203.8L1653.6,203.748L1653.72,203.701L1653.84,203.648L1653.97,203.593L1654.09,203.54L1654.21,203.486L1654.32,203.436L1654.44,203.38L1654.56,203.324L1654.67,203.272L1654.78,203.216L1654.91,203.153L1655.01,203.102L1655.12,203.049L1655.24,202.983L1655.35,202.926L1655.45,202.874L1655.56,202.812L1655.67,202.75L1655.76,202.699L1655.86,202.638L1655.97,202.577L1656.07,202.515L1656.17,202.453L1656.27,202.394L1656.37,202.328L1656.47,202.265L1656.55,202.211L1656.65,202.15L1656.75,202.079L1656.84,202.021L1656.91,201.967L1657.02,201.894L1657.1,201.831L1657.18,201.776L1657.28,201.702L1657.35,201.646L1657.43,201.582L1657.52,201.511L1657.6,201.45L1657.68,201.386L1657.75,201.326L1657.82,201.268L1657.91,201.19L1657.98,201.125L1658.04,201.071L1658.12,200.998L1658.19,200.936L1658.25,200.877L1658.32,200.81L1658.39,200.741L1658.46,200.673L1658.52,200.613L1658.58,200.55L1658.65,200.48L1658.71,200.411L1658.76,200.356L1658.82,200.292L1658.88,200.215L1658.94,200.151L1658.98,200.101L1659.03,200.037L1659.09,199.958L1659.14,199.893L1659.19,199.836L1659.23,199.777L1659.28,199.704L1659.34,199.63L1659.38,199.571L1659.42,199.513L1659.48,199.414L1659.7,199.101L1659.93,198.796L1660.18,198.498L1660.44,198.209L1660.72,197.928L1661.01,197.657L1661.31,197.397L1661.63,197.146L1661.96,196.906L1662.31,196.678L1662.66,196.461L1663.03,196.257L1663.4,196.065L1663.79,195.885L1664.18,195.719L1664.58,195.566L1664.99,195.427L1665.4,195.302L1665.82,195.192L1666.25,195.095L1666.68,195.013L1667.11,194.946L1667.55,194.894L1667.98,194.856L1668.42,194.834L1668.86,194.826L1669.3,194.834L1669.74,194.857L1670.17,194.894L1670.61,194.947L1671.04,195.014L1671.46,195.097L1671.88,195.193L1672.29,195.304L1672.7,195.43L1673.1,195.569L1673.49,195.722L1673.87,195.888L1674.24,196.068L1674.61,196.26L1674.96,196.465L1675.3,196.682L1675.63,196.91L1675.94,197.15L1676.25,197.401L1676.53,197.662L1676.81,197.933L1677.07,198.213L1677.31,198.503L1677.54,198.801L1677.75,199.106L1677.95,199.42L1678.13,199.739L1678.29,200.066L1678.43,200.397L1678.56,200.734L1678.67,201.075L1678.76,201.42L1678.83,201.768L1678.89,202.118L1678.92,202.471L1678.94,202.825L1678.94,203.179L1678.91,203.533L1678.88,203.887L1678.82,204.239L1678.74,204.59L1678.65,204.938L1678.54,205.283L1678.4,205.624L1678.26,205.96L1678.09,206.292L1677.91,206.618L1677.71,206.938L1677.58,207.129L1677.43,207.357L1677.27,207.584L1677.12,207.795L1676.97,208.004L1676.8,208.228L1676.64,208.449L1676.47,208.662L1676.31,208.859L1676.14,209.07L1675.96,209.293L1675.78,209.501L1675.61,209.693L1675.43,209.897L1675.24,210.109L1675.06,210.304L1674.88,210.496L1674.69,210.696L1674.49,210.895L1674.3,211.085L1674.11,211.271L1673.92,211.459L1673.72,211.652L1673.51,211.842L1673.32,212.017L1673.1,212.211L1672.9,212.391L1672.7,212.557L1672.49,212.742L1672.27,212.922L1672.06,213.096L1671.84,213.271L1671.63,213.434L1671.41,213.604L1671.18,213.779L1670.97,213.934L1670.74,214.106L1670.51,214.269L1670.3,214.42L1670.06,214.587L1669.83,214.749L1669.61,214.895L1669.38,215.05L1669.13,215.21L1668.9,215.359L1668.67,215.503L1668.43,215.652L1668.19,215.796L1667.95,215.939L1667.71,216.08L1667.47,216.22L1667.21,216.367L1666.97,216.501L1666.73,216.634L1666.47,216.774L1666.22,216.907L1665.99,217.03L1665.73,217.163L1665.46,217.296L1665.22,217.415L1664.97,217.539L1664.7,217.666L1664.45,217.785L1664.19,217.903L1663.93,218.025L1663.67,218.14L1663.41,218.255L1663.15,218.365L1662.89,218.475L1662.61,218.59L1662.35,218.697L1662.09,218.801L1661.81,218.91L1661.55,219.013L1661.28,219.113L1661.02,219.212L1660.75,219.31L1660.47,219.41L1660.18,219.509L1659.91,219.601L1659.64,219.692L1659.37,219.781L1659.1,219.869L1658.81,219.96L1658.54,220.044L1658.27,220.127L1657.98,220.213L1657.69,220.296L1657.41,220.374L1657.13,220.451L1656.86,220.526L1656.58,220.6L1656.29,220.675L1656.01,220.745L1655.71,220.818L1655.42,220.887L1655.15,220.95L1654.87,221.014L1654.57,221.08Z" style="fill:rgb(67,84,102);"/>
                </g>
                <g transform="matrix(0.477173,-0.107575,0.0472596,1.23752,3162.44,-187.278)">
                    <path d="M661.847,843.526C549.443,886.739 390.268,855.68 324.309,783.566C308.293,766.055 293.134,740.055 308.166,720.394C325.118,698.223 353.264,714.407 363.132,720.394C497.773,802.083 674.227,737.761 702.374,708.852C602.541,798.913 666.208,841.849 661.847,843.526Z" style="fill:rgb(243,243,243);"/>
                </g>
                <g transform="matrix(0.477173,-0.107575,0.0472596,1.23752,3162.44,-187.278)">
                    <path d="M661.847,843.526C549.443,886.739 390.268,855.68 324.309,783.566C308.293,766.055 293.134,740.055 308.166,720.394C325.118,698.223 353.264,714.407 363.132,720.394C497.773,802.083 674.227,737.761 702.374,708.852" style="fill:none;stroke:rgb(67,84,102);stroke-width:22.07px;"/>
                </g>
                <g transform="matrix(0.474634,-0.160739,0.070615,1.23094,3150.06,-212.142)">
                    <path d="M672.574,829.814C534.835,883.724 392.446,858.062 324.309,783.566" style="fill:none;stroke:rgb(153,164,166);stroke-width:22.07px;"/>
                </g>
                <g transform="matrix(-0.375602,0,0,0.912595,4439.03,-13.8852)">
                    <path d="M2643.73,417.466C2643.73,410.873 2646.03,398.448 2647.72,390.222C2654.22,358.706 2667.12,327.742 2685.4,301.311L2685.46,301.225C2671.16,298.883 2647.19,300.33 2634.39,304.223C2634.39,304.223 2630.85,305.233 2628.24,303.828C2625.26,302.226 2624.23,298.61 2624.7,295.083C2627.38,274.973 2650.6,231.534 2679.4,215.616C2687.81,210.969 2688.59,220.472 2685.14,223.74C2663.64,240.669 2645.53,275.149 2642.7,286.19C2648.49,284.791 2681.05,278.495 2704.46,286.796C2704.46,286.796 2707.5,288.388 2708.46,289.476C2710.61,291.915 2711.35,295.485 2710.36,298.584C2709.91,299.964 2706.78,304.319 2705.37,306.427C2687.86,332.488 2677.05,362.188 2671.35,393.231C2669.89,401.181 2667.97,410.419 2667.97,417.466C2667.97,424.513 2662.54,429.584 2655.85,429.584C2649.16,429.584 2643.73,424.06 2643.73,417.466Z" style="fill:rgb(67,84,102);"/>
                </g>
                <g transform="matrix(0.200883,0,0,1,2778.86,-27.7188)">
                    <g transform="matrix(2.06423,0,-3.61492e-17,1.00752,2243.71,1.85734)">
                        <circle cx="491.685" cy="194.362" r="41.779" style="fill:rgb(254,153,1);"/>
                    </g>
                    <g transform="matrix(0.757834,0,-1.32713e-17,0.369887,2859.41,105.788)">
                        <circle cx="491.685" cy="194.362" r="41.779" style="fill:rgb(253,253,253);fill-opacity:0.3;"/>
                    </g>
                </g>
            </g>
        </g>
    </g>
</svg>
