<svg xmlns="http://www.w3.org/2000/svg" width="10" height="8" xmlns:xlink="http://www.w3.org/1999/xlink"><defs><path id="a" d="M5.5 6.482C7.373 6.344 8.899 5.44 9.358 4.25c.093.24.142.491.142.75 0 1.544-1.75 2.816-4 2.982V8h-1v-.018C2.25 7.816.5 6.544.5 5c0-.259.05-.51.142-.75.46 1.19 1.985 2.094 3.858 2.232V2.915a1.5 1.5 0 1 1 1 0v3.567zM4.5 1v1h1V1h-1z"/><filter id="b" width="105.6%" height="106.2%" x="-2.8%" y="-3.1%" filterUnits="objectBoundingBox"><feOffset dy=".5" in="SourceAlpha" result="shadowOffsetInner1"/><feComposite in="shadowOffsetInner1" in2="SourceAlpha" operator="arithmetic" k2="-1" k3="1" result="shadowInnerInner1"/><feColorMatrix values="0 0 0 0 0.59327877 0 0 0 0 0.60781191 0 0 0 0 0.636878189 0 0 0 1 0" in="shadowInnerInner1"/></filter></defs><g fill="none" fill-rule="evenodd"><use fill="#BABEC6" xlink:href="#a"/><use fill="#000" filter="url(#b)" xlink:href="#a"/></g></svg>