<svg viewBox="0 0 100 100" xmlns="http://www.w3.org/2000/svg" fill-rule="evenodd" clip-rule="evenodd" stroke-linejoin="round" stroke-miterlimit="1.414"><path fill="none" d="M0 0h100v100H0z"/><g fill-rule="nonzero"><path d="M40.026 66.774s-2.905 1.69 2.068 2.262c6.023.686 9.099.587 15.735-.67 0 0 1.745 1.094 4.181 2.043-14.875 6.377-33.669-.37-21.982-3.635m-1.818-8.32s-3.259 2.412 1.717 2.926c6.432.663 11.512.718 20.303-.977 0 0 1.217 1.233 3.13 1.908-17.99 5.26-38.024.416-25.152-3.857" fill="#5382a1"/><path d="M53.534 44.338c3.666 4.223-.964 8.02-.964 8.02s9.308-4.805 5.035-10.823c-3.994-5.611-7.055-8.4 9.521-18.013 0 0-26.018 6.498-13.592 20.816" fill="#e76f00"/><path d="M73.21 72.928s2.15 1.772-2.365 3.143c-8.588 2.6-35.744 3.386-43.287.103-2.711-1.18 2.374-2.817 3.974-3.162 1.668-.36 2.62-.293 2.62-.293-3.014-2.125-19.49 4.17-8.368 5.975 30.333 4.918 55.298-2.216 47.427-5.766M41.423 49.833s-13.812 3.278-4.892 4.47c3.768.507 11.278.393 18.27-.195 5.717-.482 11.458-1.507 11.458-1.507s-2.015.864-3.476 1.86c-14.026 3.69-41.122 1.973-33.322-1.8 6.597-3.192 11.962-2.828 11.962-2.828M66.2 63.683c14.259-7.41 7.666-14.53 3.065-13.571-1.126.235-1.628.44-1.628.44s.418-.658 1.217-.942c9.103-3.2 16.105 9.44-2.94 14.446 0 0 .22-.198.286-.374" fill="#5382a1"/><path d="M57.605 8s7.897 7.9-7.49 20.046c-12.338 9.744-2.812 15.3-.005 21.648-7.202-6.498-12.487-12.22-8.942-17.542C46.374 24.334 60.79 20.547 57.605 8" fill="#e76f00"/><path d="M42.825 83.761c13.686.876 34.703-.486 35.2-6.962 0 0-.957 2.453-11.31 4.403-11.682 2.2-26.09 1.943-34.635.533 0 0 1.75 1.447 10.745 2.024" fill="#5382a1"/></g></svg>