<svg viewBox="0 0 100 100" xmlns="http://www.w3.org/2000/svg" fill-rule="evenodd" clip-rule="evenodd" stroke-linejoin="round" stroke-miterlimit="1.414"><path fill="none" d="M0 0h100v100H0z"/><path d="M50.001 83.805a5.451 5.451 0 0 1-2.61-.685l-8.259-4.906c-1.245-.682-.625-.932-.25-1.055 1.678-.56 1.988-.685 3.726-1.678.187-.125.435-.062.622.063l6.336 3.788c.248.125.558.125.745 0l24.783-14.347c.248-.125.373-.372.373-.685V35.67c0-.314-.125-.561-.373-.686L50.311 20.702c-.25-.125-.56-.125-.745 0L24.783 34.986c-.25.126-.372.436-.372.683v28.634c0 .25.122.56.372.685l6.771 3.913c3.663 1.862 5.96-.313 5.96-2.486V38.152a.759.759 0 0 1 .746-.745h3.168a.761.761 0 0 1 .747.745v28.26c0 4.909-2.673 7.764-7.33 7.764-1.428 0-2.546 0-5.714-1.552l-6.526-3.726A5.247 5.247 0 0 1 20 64.365V35.726c0-1.862.993-3.603 2.608-4.533L47.39 16.844a5.542 5.542 0 0 1 5.218 0l24.783 14.35A5.25 5.25 0 0 1 80 35.725v28.64a5.234 5.234 0 0 1-2.608 4.532L52.61 83.248c-.82.37-1.709.56-2.608.56v-.003zm7.639-19.69c-10.87 0-13.104-4.968-13.104-9.194a.759.759 0 0 1 .745-.745h3.23c.37 0 .683.25.683.623.495 3.29 1.925 4.905 8.508 4.905 5.218 0 7.454-1.18 7.454-3.975 0-1.615-.62-2.795-8.759-3.603-6.768-.683-10.994-2.173-10.994-7.576 0-5.03 4.226-8.013 11.307-8.013 7.948 0 11.861 2.735 12.359 8.696-.006.2-.07.396-.188.56-.122.122-.31.247-.495.247h-3.23a.733.733 0 0 1-.683-.56c-.745-3.413-2.67-4.533-7.763-4.533-5.716 0-6.399 1.988-6.399 3.478 0 1.8.808 2.36 8.509 3.356 7.64.992 11.241 2.422 11.241 7.763-.06 5.466-4.533 8.571-12.421 8.571z" fill="#89d42c" fill-rule="nonzero"/></svg>