<svg viewBox="0 0 100 100" xmlns="http://www.w3.org/2000/svg" fill-rule="evenodd" clip-rule="evenodd" stroke-linejoin="round" stroke-miterlimit="1.414"><path fill="none" d="M0 0h100v100H0z"/><g fill="#00acd7"><path d="M6.036 44.117c-.161 0-.188-.108-.134-.215l.806-1.075a.85.85 0 0 1 .457-.161h13.892c.161 0 .188.107.134.215l-.671 1.02c-.081.108-.27.243-.404.243l-14.08-.054v.027zM.152 47.69c-.162 0-.189-.08-.108-.215l.806-1.047c.08-.108.269-.189.43-.189h17.735c.188 0 .268.108.215.242l-.323.914c-.027.161-.188.269-.35.269H.153v.026zm9.431 3.574c-.161 0-.215-.107-.134-.242l.537-.967c.108-.107.269-.242.403-.242h7.793c.161 0 .242.135.242.269l-.081.94c0 .162-.161.27-.269.27l-8.49-.028zm40.414-7.873l-6.53 1.72c-.591.161-.645.188-1.128-.403-.592-.645-1.022-1.075-1.855-1.478a6.78 6.78 0 0 0-7.04.591 8.285 8.285 0 0 0-3.977 7.39c-.043 3.063 2.23 5.707 5.267 6.126 2.633.35 4.864-.591 6.61-2.58l1.075-1.424h-7.524c-.806 0-1.02-.537-.752-1.182.51-1.21 1.451-3.224 1.988-4.246.175-.373.554-.615.968-.618h14.187c-.08 1.075-.08 2.096-.241 3.171-.43 2.795-1.478 5.374-3.198 7.631a16.242 16.242 0 0 1-11.098 6.61c-3.697.6-7.483-.333-10.48-2.579a12.237 12.237 0 0 1-4.943-8.599c-.484-4.245.752-8.06 3.332-11.42a17.286 17.286 0 0 1 10.882-6.717 13.443 13.443 0 0 1 10.319 1.88c2.069 1.344 3.547 3.225 4.54 5.51.216.348.054.537-.402.644v-.027z"/><path d="M62.868 64.941a14.616 14.616 0 0 1-9.486-3.439 12.233 12.233 0 0 1-4.191-7.524 14.863 14.863 0 0 1 3.143-11.742 16.337 16.337 0 0 1 10.91-6.503 14.467 14.467 0 0 1 11.098 1.988 12.13 12.13 0 0 1 5.481 8.68 15.065 15.065 0 0 1-4.487 13.193 17.854 17.854 0 0 1-9.324 4.998c-1.075.188-2.123.215-3.117.35h-.027zm9.297-15.746c-.054-.51-.054-.887-.134-1.29a6.443 6.443 0 0 0-6.328-5.333c-.54 0-1.078.067-1.6.201a8.537 8.537 0 0 0-6.824 6.772 6.443 6.443 0 0 0 3.573 7.362c2.15.914 4.3.806 6.369-.269a8.533 8.533 0 0 0 4.944-7.416v-.027z" fill-rule="nonzero"/></g></svg>