<svg viewBox="0 0 100 100" xmlns="http://www.w3.org/2000/svg" fill-rule="evenodd" clip-rule="evenodd" stroke-linejoin="round" stroke-miterlimit="1.414"><path fill="none" d="M0 0h100v100H0z"/><path d="M50 28.959c-22.09 0-40 9.421-40 21.04C10 61.617 27.91 71.04 50 71.04S90 61.62 90 50c0-11.622-17.91-21.04-40-21.04zM39.133 53.796a8.076 8.076 0 0 1-3.056 1.835c-1.12.36-2.549.546-4.282.546h-3.939l-1.088 5.606h-4.597l4.101-21.088h8.832c2.656 0 4.595.696 5.813 2.093 1.222 1.395 1.587 3.341 1.099 5.84a9.494 9.494 0 0 1-1.013 2.824 9.524 9.524 0 0 1-1.872 2.344h.002zm13.414 2.381l1.81-9.328c.21-1.061.13-1.786-.226-2.17-.358-.387-1.12-.582-2.291-.582H48.2l-2.347 12.086h-4.56l4.102-21.091h4.554L48.861 40.7h4.059c2.557 0 4.317.445 5.288 1.333.97.888 1.259 2.336.875 4.334l-1.907 9.813h-4.63v-.003zm25.322-7.546a9.268 9.268 0 0 1-1.016 2.82 9.513 9.513 0 0 1-1.87 2.345 8.155 8.155 0 0 1-3.058 1.835c-1.12.36-2.55.546-4.285.546h-3.933l-1.091 5.608h-4.59l4.1-21.088h8.831c2.656 0 4.592.699 5.814 2.094 1.218 1.392 1.589 3.338 1.1 5.84h-.002z" fill="#6181b6" fill-rule="nonzero"/><path d="M33.365 44.023H30.22l-1.715 8.826h2.792c1.853 0 3.235-.352 4.141-1.048.907-.698 1.518-1.861 1.832-3.496.307-1.568.168-2.672-.413-3.317-.581-.643-1.741-.965-3.488-.965h-.003zM69.219 44.023h-3.14l-1.72 8.826h2.793c1.856 0 3.237-.352 4.141-1.048.907-.698 1.515-1.861 1.835-3.496.307-1.568.165-2.672-.416-3.317-.579-.643-1.747-.965-3.49-.965h-.003z" fill="#6181b6"/></svg>