<svg viewBox="0 0 100 100" xmlns="http://www.w3.org/2000/svg" fill-rule="evenodd" clip-rule="evenodd" stroke-linejoin="round" stroke-miterlimit="1.414"><path fill="none" d="M0 0h100v100H0z"/><path d="M49.784 20.156c-15.232 0-14.28 6.605-14.28 6.605l.016 6.844h14.535v2.054H29.747S20 34.554 20 49.923s8.507 14.824 8.507 14.824h5.077v-7.132s-.273-8.507 8.372-8.507h14.416s8.1.13 8.1-7.828V28.12s1.23-7.964-14.688-7.964zm-8.015 4.602h.002a2.625 2.625 0 0 1 2.613 2.613v.004a2.625 2.625 0 0 1-2.613 2.613h-.002-.002a2.625 2.625 0 0 1-2.613-2.613v-.002-.002a2.625 2.625 0 0 1 2.613-2.613h.002z" fill="#3372a7" fill-rule="nonzero"/><path d="M50.216 79.844c15.232 0 14.281-6.605 14.281-6.605l-.017-6.844H49.945v-2.054h20.308S80 65.446 80 50.077s-8.507-14.824-8.507-14.824h-5.077v7.132s.273 8.507-8.372 8.507H43.628s-8.1-.13-8.1 7.828v13.16s-1.23 7.964 14.688 7.964zm8.015-4.602h-.002a2.625 2.625 0 0 1-2.613-2.612v-.003-.002a2.625 2.625 0 0 1 2.613-2.613h.005a2.625 2.625 0 0 1 2.612 2.613v.005a2.625 2.625 0 0 1-2.612 2.612h-.003z" fill="#ffd235" fill-rule="nonzero"/></svg>