<svg viewBox="0 0 100 100" xmlns="http://www.w3.org/2000/svg" fill-rule="evenodd" clip-rule="evenodd" stroke-linejoin="round" stroke-miterlimit="1.414"><path fill="none" d="M0 0h100v100H0z"/><path d="M70.39 20.209c7.58 1.311 9.733 6.496 9.572 11.926l.038-.08-3.412 44.723-44.362 3.038h.039C28.583 79.66 20.374 79.325 20 67.849l4.113-7.5 7.047 16.464 1.257 2.932 7.012-22.86-.074.016.039-.076 23.138 7.39L59.04 50.64l-2.474-9.75 22.05-1.424-1.538-1.274L61.25 25.287l9.147-5.103-.008.027v-.002zM32.825 32.683c8.902-8.83 20.392-14.05 24.805-9.6 4.404 4.446-.265 15.265-9.183 24.09-8.907 8.831-20.258 14.335-24.66 9.895-4.418-4.446.112-15.546 9.027-24.377l.011-.008z" fill="#d91505" fill-rule="nonzero"/></svg>