<svg viewBox="0 0 100 100" xmlns="http://www.w3.org/2000/svg" fill-rule="evenodd" clip-rule="evenodd" stroke-linejoin="round" stroke-miterlimit="1.414"><path fill="none" d="M0 0h100v100H0z"/><path d="M75.576 31.774a2.416 2.416 0 1 1 0-4.832 2.416 2.416 0 0 1 0 4.832M51.578 73.059a2.416 2.416 0 1 1 0-4.832 2.416 2.416 0 0 1 0 4.832m23.998-48.125a4.424 4.424 0 0 0-4.423 4.423c0 .521.13 1.007.296 1.471L50.697 66.396c-2.005.42-3.542 2.116-3.542 4.247a4.424 4.424 0 0 0 8.845 0c0-.491-.131-.94-.278-1.382L76.58 33.577c1.944-.466 3.421-2.133 3.421-4.22a4.424 4.424 0 0 0-4.424-4.423" fill="#29b362" fill-rule="nonzero"/><path d="M57.476 31.774a2.416 2.416 0 1 1 0-4.833 2.416 2.416 0 0 1 0 4.833m-24 41.285a2.418 2.418 0 1 1 .003-4.835 2.418 2.418 0 0 1-.003 4.835m24-48.125a4.423 4.423 0 0 0-4.423 4.423c0 .521.131 1.007.297 1.471L32.597 66.396c-2.007.42-3.544 2.116-3.544 4.247a4.424 4.424 0 0 0 8.847 0c0-.491-.131-.94-.278-1.382L58.48 33.577c1.944-.466 3.42-2.133 3.42-4.22a4.425 4.425 0 0 0-4.423-4.423M24.424 39.17a2.417 2.417 0 1 1-.002 4.834 2.417 2.417 0 0 1 .002-4.835m0 6.84a4.424 4.424 0 0 0 4.423-4.423c0-.49-.133-.94-.28-1.382-.585-1.756-2.191-3.042-4.143-3.042-.313 0-.586.116-.881.179-2.006.418-3.543 2.114-3.543 4.245a4.424 4.424 0 0 0 4.424 4.423M22.007 57.043a2.416 2.416 0 1 1 4.833 0 2.416 2.416 0 0 1-4.833 0m6.84 0c0-.491-.133-.94-.28-1.382-.585-1.756-2.19-3.042-4.143-3.042-.313 0-.586.116-.881.177-2.006.42-3.543 2.116-3.543 4.247a4.425 4.425 0 0 0 8.847 0" fill="#579ae6" fill-rule="nonzero"/></svg>