<svg viewBox="0 0 100 100" xmlns="http://www.w3.org/2000/svg" xmlns:serif="http://www.serif.com/" fill-rule="evenodd" clip-rule="evenodd" stroke-linejoin="round" stroke-miterlimit="1.414"><path fill="none" d="M0 0h100v100H0z"/><path d="M15 63.696h6.087c4.687 0 7.03 0 12.174-15.218l6.087-6.087C44.4 60.804 46.378 63.696 50 63.696h13.696c3.713 0 7.517-2.557 21.304-27.392H72.826c-6.756 0-9.404 11.687-12.174 21.305-4.748-17.105-5.691-21.305-12.174-21.305H34.783c-6.087 0-13.026 4.566-19.783 27.392z" fill="#1384c8" fill-rule="nonzero"/><path d="M34.783 36.304c3.548 1.406 4.565 6.087 4.565 6.087C44.4 60.804 46.378 63.696 50 63.696h13.696c1.077 0 2.118-.283 3.494-1.126-3.175.821-4.891-.238-6.538-4.961-4.748-17.105-5.691-21.305-12.174-21.305H34.783z" fill="#0e79ae" fill-rule="nonzero" serif:id="_Path_"/></svg>