<svg viewBox="0 0 770 200" xmlns="http://www.w3.org/2000/svg" fill-rule="evenodd" clip-rule="evenodd" stroke-linejoin="round" stroke-miterlimit="1.414"><path d="M104.926 22.793c42.642 0 77.204 34.566 77.204 77.206 0 42.643-34.562 77.208-77.206 77.208-42.636 0-77.202-34.565-77.202-77.207 0-42.641 34.566-77.206 77.203-77.206l.001-.001z" fill="#5ac8fa" fill-rule="nonzero"/><circle cx="104.925" cy="100" r="74.656" fill="#fff"/><path d="M164.38 89.137l-23.41-24.176H68.882L45.478 89.137l59.448 61.871 59.454-61.871z" fill="url(#_Linear1)" fill-rule="nonzero"/><path d="M104.926 64.961l19.97 8.125 9.879-8.125h-29.849z" fill="#f37c5c" fill-rule="nonzero"/><path d="M140.97 64.961h-6.195l14.336 8.398-8.141-8.398z" fill="#f28671" fill-rule="nonzero"/><path d="M149.111 73.359l-14.336-8.398-9.879 8.125 22.229 16.051 1.986-15.778z" fill="#f68b74" fill-rule="nonzero"/><path d="M149.111 73.359l-1.986 15.778h17.256l-15.27-15.778z" fill="#f0805f" fill-rule="nonzero"/><path d="M124.896 73.085l-19.97 16.052h42.199l-22.229-16.052z" fill="#f37847" fill-rule="nonzero"/><path d="M104.926 89.137l7.184 39.637 35.015-39.637h-42.199z" fill="#e86a47" fill-rule="nonzero"/><path d="M112.11 128.773l-7.185 22.235 21.362-22.235 20.837-39.636-35.014 39.636z" fill="#e66950" fill-rule="nonzero"/><path d="M147.125 89.137l-20.837 39.637 38.092-39.637h-17.255z" fill="#e3775e" fill-rule="nonzero"/><path d="M104.926 64.961L84.96 73.086l19.965 16.051 19.97-16.052-19.969-8.124z" fill="#e2655f" fill-rule="nonzero"/><path d="M75.08 64.961l9.88 8.125 19.965-8.125H75.08z" fill="#de5750" fill-rule="nonzero"/><path d="M68.882 64.961l-8.146 8.398 14.342-8.398h-6.196z" fill="#ba4542" fill-rule="nonzero"/><path d="M75.08 64.961l-14.344 8.398 1.996 15.778 22.227-16.052-9.879-8.124z" fill="#dd534a" fill-rule="nonzero"/><path d="M45.478 89.137h17.254l-1.996-15.778-15.258 15.778z" fill="#c8534c" fill-rule="nonzero"/><path d="M84.96 73.085L62.733 89.137h42.192L84.96 73.085z" fill="#de5750" fill-rule="nonzero"/><path d="M62.732 89.137l35.013 39.637 7.179-39.637H62.732z" fill="#c8534c" fill-rule="nonzero"/><path d="M97.745 128.773L62.732 89.137l20.835 39.637 21.358 22.235-7.18-22.236z" fill="#bf4d4e" fill-rule="nonzero"/><path d="M62.732 89.137H45.478l38.088 39.637-20.834-39.637z" fill="#b04f4f" fill-rule="nonzero"/><path d="M104.926 89.137l-7.181 39.637 7.179 22.235 7.186-22.235-7.184-39.637z" fill="#d8614f" fill-rule="nonzero"/><path d="M142.221 89.137h-1.233l-11.581-11.046-11.284 11.046h.971l-12.025 11.819.112.593-2.189 2.349-2.333-2.266.12-.647-11.11-11.191-11.561 11.5 19.156 19.09-.127.694 5.797 5.873.007-.007 5.793-5.756-.111-.641 31.598-31.41z" fill="#fff" fill-opacity=".894" fill-rule="nonzero"/><g fill-rule="nonzero"><path d="M580.754 87.773c-1.312 0-2.39.629-3.204 1.891-.39 1.242-1.02 1.864-1.899 1.864-.466 0-1.013-.239-1.646-.711-3.542-2.004-7.041-3.006-10.497-3.006h-.66c-4.036 0-7.972 1.264-11.818 3.787-1.258.829-2.733 2.186-4.404 4.081-1.346 1.81-2.263 3.313-2.761 4.49-1.258 2.939-1.896 5.734-1.896 8.4v.734c0 .659.095 1.728.298 3.176.684 3.845 2.275 7.26 4.777 10.252 4.5 4.905 9.91 7.369 16.217 7.369 1.538 0 3.187-.198 4.943-.609 3.318-.832 6.259-2.362 8.811-4.619.083 0 .123.034.123.081v1.03c0 2.115-.497 4.174-1.482 6.177-1.629 3.212-4.231 5.519-7.822 6.918-1.1.357-2.214.618-3.339.781-1.532 0-2.587.18-3.175.536-1.181.827-1.759 1.854-1.759 3.092 0 .571.196 1.215.608 1.926.83 1.102 1.797 1.642 2.928 1.642a.433.433 0 0 1 .165-.035h.21c2.773 0 5.68-.681 8.719-2.02 1.92-.909 3.746-2.167 5.479-3.79 1.671-1.707 2.801-3.052 3.371-4.039 2.167-3.612 3.259-7.282 3.259-10.99V92.015c0-1.431-.33-2.441-.948-3.05-.827-.793-1.692-1.193-2.6-1.193l.002.001zm-17.615 35.042c-7.728 0-13.989-6.26-13.989-13.985 0-7.724 6.262-13.987 13.992-13.987 7.719 0 13.983 6.261 13.983 13.987 0 7.724-6.264 13.985-13.984 13.985h-.002zm154.658-49.864c-.796-1.427-1.841-2.148-3.127-2.148h-.291c-.307 0-.726.093-1.274.289-1.458.657-2.186 1.98-2.186 3.957v14.363c0 .111-.012.28-.044.494-.351.878-.932 1.317-1.724 1.317-.137 0-.37-.053-.706-.166-3.681-2.251-7.452-3.376-11.32-3.376-1.868 0-3.789.25-5.763.741-2.61.795-4.695 1.785-6.259 2.962-1.593.903-3.36 2.606-5.312 5.108-2.598 3.842-3.903 7.878-3.903 12.105 0 4.502 1.256 8.579 3.784 12.231 1.258 1.899 2.929 3.597 4.983 5.103 3.844 2.644 7.864 3.957 12.058 3.957h.618c3.623 0 7.176-1.041 10.668-3.13.547-.353 1.014-.534 1.398-.534h.078c.8 0 1.378.46 1.738 1.396.734 1.505 1.818 2.267 3.243 2.267.414 0 .862-.081 1.366-.247 1.505-.739 2.263-1.796 2.263-3.171V74.224c0-.299-.093-.724-.291-1.273h.003zm-20.878 49.856c-7.724 0-13.985-6.262-13.985-13.986 0-7.725 6.261-13.986 13.984-13.986 7.724 0 13.988 6.262 13.988 13.986 0 7.724-6.261 13.986-13.987 13.986zM293.648 87.773c-.351 0-.842.096-1.433.288-1.405.798-2.101 1.868-2.101 3.21v19.02c0 1.403-.062 2.402-.163 3.009-.31 1.594-.734 2.827-1.28 3.705-.445.93-1.305 1.992-2.598 3.167-2.167 1.703-4.444 2.555-6.827 2.555h-.623c-2.14 0-4.224-.705-6.262-2.104-.028 0-.451-.35-1.273-1.064-1.239-1.402-1.992-2.501-2.266-3.3-.71-1.26-1.069-3.247-1.069-5.969V94.205c0-1.265-.315-2.209-.947-2.843-.793-.795-1.661-1.195-2.594-1.195-.795 0-1.51.252-2.138.746-.967.629-1.442 1.761-1.442 3.42v16.087c0 3.34.454 6.035 1.358 8.066.769 1.98 2.016 3.907 3.744 5.809 3.793 3.73 8.276 5.597 13.462 5.597a22.495 22.495 0 0 0 2.149-.205c2.004-.274 3.638-.719 4.894-1.356 1.511-.772 2.423-1.157 2.72-1.157.47 0 .897.167 1.278.497.909 1.48 2.039 2.221 3.414 2.221.329 0 .799-.097 1.402-.295 1.459-.656 2.179-1.942 2.179-3.862V91.931c0-1.18-.245-2.074-.734-2.682-.798-.983-1.747-1.476-2.847-1.476h-.003zm35.616 4.322c0-.025-.253-.288-.743-.783-2.959-2.388-6.175-3.582-9.629-3.582-1.763 0-3.542.324-5.354.984-.985.464-1.636.699-1.937.699h-.121c-.322 0-.658-.093-.983-.289-.908-.935-1.837-1.395-2.803-1.395-.935 0-1.743.323-2.423.984-.8.6-1.191 1.637-1.191 3.087v34.013c0 .762.062 1.334.196 1.68.384.94.96 1.61 1.731 2.024.583.247 1.053.368 1.439.368h.373c.74 0 1.439-.295 2.102-.86.847-.606 1.273-1.678 1.273-3.209v-23.184c0-2.004.676-3.759 2.02-5.271 1.623-1.675 3.47-2.513 5.565-2.513 1.249 0 2.437.272 3.538.825 1.34.711 2.903 2.205 4.287 2.205 2.027 0 3.519-1.398 3.519-3.425 0-.897-.329-1.707-.862-2.342-.005-.009 0-.011.007-.019l-.004.003zm38.867-4.406h-.167c-1.02 0-1.911.494-2.687 1.489l-10.742 24.662c-.443 1.379-1.088 2.058-1.936 2.058-.548 0-.997-.233-1.359-.705-.275-.597-4.011-9.153-11.199-25.648-.714-1.24-1.673-1.856-2.883-1.856h-.128c-.433 0-.882.108-1.354.326-1.234.717-1.852 1.678-1.852 2.885v.124c0 .385.082.796.249 1.235 9.105 21.026 13.739 31.676 13.871 31.952 1.154 2.828 1.879 4.357 2.177 4.567.717.741 1.514 1.116 2.394 1.116 1.619 0 2.784-.987 3.495-2.967 9.169-21.102 13.797-31.767 13.876-31.988.965-1.981 1.438-3.278 1.438-3.915v-.125c0-.55-.164-1.105-.486-1.647-.711-1.042-1.613-1.564-2.707-1.564v.001zm41.317 24.123c-.845-.157-1.736.066-2.673.661-.578.429-1.113 1.27-1.62 2.549-.659 1.22-1.287 2.163-1.875 2.813-.391.621-1.48 1.577-3.262 2.846-3.201 1.832-6.35 2.474-9.461 1.929l-.812-.149c-1.948-.34-3.918-1.258-5.911-2.754-.501-.474-.705-.982-.615-1.489l.046-.241c.07-.378.3-.728.688-1.049 2.47-1.18 3.702-1.785 3.705-1.817 14.603-6.925 22.147-10.535 22.64-10.805.927-.673 1.468-1.442 1.625-2.299a2.124 2.124 0 0 1 .035-.459c.154-.859-.396-2.295-1.661-4.31-3.586-5.12-8.256-8.181-14.013-9.2-4.486-.792-8.898-.134-13.224 1.973-.785.334-2.085 1.177-3.914 2.528-4.017 3.501-6.462 7.736-7.34 12.714-.459 2.618-.361 5.517.31 8.673.323 1.196.811 2.536 1.47 4.01.897 1.893 2.152 3.716 3.756 5.469 3.395 3.359 7.189 5.414 11.379 6.142l.648.119c2.381.419 4.96.331 7.742-.265 1.437-.247 3.145-.85 5.131-1.811 1.15-.548 2.543-1.472 4.165-2.778 1.594-1.445 2.784-2.768 3.588-3.967 1.384-2.204 2.19-3.842 2.405-4.89l.023-.122c.07-.404.068-.783-.012-1.123-.357-1.645-1.346-2.616-2.962-2.901l-.001.003zm-29.257-1.269c-.513-.091-.915-.33-1.21-.72-.391-.432-.426-1.592-.093-3.484.658-3.732 2.676-6.8 6.056-9.222 3.332-1.946 6.571-2.643 9.737-2.088l.81.144c1.948.344 3.913 1.276 5.901 2.802.473.469.669.953.592 1.441l-.053.245c-.077.482-.358.874-.833 1.191-12.112 5.781-18.24 8.686-18.39 8.706-1.269.734-2.108 1.057-2.516.985h-.001zm113.02 12.186h-19.934c-1.069 0-1.915-.343-2.551-1.033-.716-.518-1.072-1.604-1.072-3.253V74.309c0-.356-.091-.768-.287-1.234-.705-1.457-1.802-2.183-3.291-2.183-.414 0-.877.096-1.396.285-1.448.638-2.182 1.951-2.182 3.956v50.44c0 1.144.152 1.93.463 2.351.576 1.316 1.838 1.974 3.784 1.974h26.479c1.116 0 1.946-.195 2.47-.581 1.095-.827 1.639-1.814 1.639-2.961 0-.308-.108-.796-.326-1.488-.664-1.428-1.928-2.139-3.793-2.139h-.003zm41.375-10.917c-.834-.157-1.721.066-2.659.661-.585.429-1.118 1.276-1.631 2.549-.659 1.22-1.282 2.163-1.876 2.813-.384.621-1.474 1.577-3.255 2.846-3.204 1.832-6.349 2.474-9.46 1.929l-.813-.149c-1.944-.34-3.911-1.258-5.914-2.754-.501-.478-.703-.982-.604-1.489l.045-.238c.058-.377.291-.73.684-1.052 2.461-1.18 3.699-1.785 3.702-1.817 14.598-6.925 22.151-10.535 22.651-10.805.924-.673 1.461-1.442 1.614-2.299a2.188 2.188 0 0 1 .04-.459c.152-.859-.402-2.295-1.666-4.31-3.582-5.115-8.252-8.181-14.012-9.2-4.485-.792-8.895-.134-13.225 1.973-.781.34-2.091 1.182-3.917 2.536-4.008 3.499-6.466 7.736-7.34 12.718-.458 2.619-.352 5.511.314 8.668.32 1.195.808 2.537 1.471 4.011.889 1.893 2.143 3.714 3.758 5.469 3.393 3.36 7.185 5.415 11.373 6.144l.653.119c2.377.415 4.951.33 7.739-.268 1.433-.247 3.146-.847 5.122-1.809 1.159-.55 2.549-1.475 4.171-2.781 1.592-1.445 2.79-2.768 3.586-3.966 1.392-2.205 2.19-3.839 2.408-4.893l.026-.121a3.002 3.002 0 0 0-.01-1.125c-.366-1.648-1.348-2.619-2.976-2.903l.001.002zm-29.248-1.269c-.507-.091-.917-.33-1.209-.72-.396-.432-.429-1.592-.099-3.484.662-3.732 2.68-6.8 6.065-9.222 3.321-1.946 6.571-2.643 9.731-2.088l.811.144c1.945.344 3.914 1.276 5.906 2.802.469.469.671.953.583 1.441l-.039.245c-.087.482-.367.874-.843 1.191-12.101 5.781-18.238 8.686-18.381 8.706-1.282.734-2.117 1.057-2.525.985zm121.176 1.269c-.836-.157-1.724.066-2.664.661-.575.429-1.117 1.27-1.623 2.549-.662 1.22-1.282 2.163-1.881 2.813-.388.621-1.476 1.577-3.262 2.846-3.192 1.832-6.344 2.474-9.448 1.929l-.809-.149c-1.953-.34-3.92-1.258-5.913-2.754-.501-.474-.71-.982-.617-1.489l.043-.241c.07-.378.303-.728.697-1.049 2.458-1.18 3.696-1.785 3.707-1.817 14.589-6.925 22.144-10.535 22.637-10.805.928-.673 1.468-1.442 1.622-2.299a1.565 1.565 0 0 1 .042-.459c.151-.859-.401-2.295-1.666-4.31-3.591-5.12-8.255-8.181-14.016-9.202-4.48-.789-8.889-.13-13.223 1.976-.781.336-2.086 1.179-3.918 2.528-4.011 3.502-6.466 7.738-7.334 12.716-.463 2.617-.362 5.514.307 8.672.323 1.197.804 2.537 1.468 4.01.89 1.895 2.152 3.717 3.76 5.47 3.39 3.359 7.182 5.414 11.374 6.142l.65.119c2.377.417 4.956.33 7.736-.265 1.437-.249 3.149-.851 5.126-1.813 1.16-.552 2.552-1.472 4.171-2.778 1.593-1.444 2.791-2.769 3.583-3.968 1.392-2.204 2.195-3.842 2.415-4.89l.023-.123a2.8 2.8 0 0 0-.007-1.123c-.373-1.645-1.349-2.616-2.979-2.901l-.001.004zm-29.247-1.269c-.51-.091-.917-.33-1.209-.72-.392-.432-.435-1.592-.1-3.484.662-3.732 2.678-6.8 6.059-9.222 3.329-1.946 6.57-2.643 9.737-2.088l.816.144c1.945.344 3.908 1.276 5.902 2.802.461.466.668.953.582 1.441l-.041.245c-.089.482-.369.874-.838 1.191-12.112 5.781-18.245 8.686-18.39 8.706-1.272.734-2.112 1.057-2.516.985h-.002zm70.067-16.47c-3.865-4.229-8.525-6.343-13.954-6.343-2.745 0-5.424.626-8.039 1.894-.983.548-1.628.825-1.934.825-.71 0-1.295-.373-1.762-1.11-.793-1.069-1.783-1.608-2.967-1.608-.904 0-1.736.365-2.504 1.111-.691.606-1.03 1.623-1.03 3.047v33.842c0 1.401.32 2.403.946 3.006.797.769 1.642 1.154 2.549 1.154.879 0 1.623-.261 2.228-.785.933-.58 1.396-1.7 1.396-3.373v-18.446c0-1.563.082-2.705.248-3.42.412-2.004 1.256-3.745 2.55-5.225 2.359-2.526 5.164-3.79 8.4-3.79 1.149 0 2.388.206 3.709.615 2.985 1.15 5.143 3.13 6.466 5.93.685 1.293 1.025 3.25 1.025 5.889v18.443c0 1.402.322 2.404.948 3.008.8.769 1.654 1.15 2.556 1.15.85 0 1.591-.26 2.223-.783.932-.58 1.395-1.701 1.395-3.374v-18.609c0-3.544-.551-6.399-1.642-8.571-.475-1.203-1.408-2.701-2.806-4.481l-.001.004zm-216.839-6.342c-.871 0-1.617.265-2.222.785-.343.21-.606.531-.827.894-.067.093-.137.163-.196.253l-.007.095c-.238.566-.361 1.275-.361 2.127v18.447c0 1.567-.089 2.703-.251 3.417-.411 2.008-1.258 3.744-2.551 5.229-2.359 2.528-5.161 3.791-8.398 3.791-1.153 0-2.391-.201-3.702-.613-2.995-1.151-5.15-3.127-6.475-5.935-.687-1.293-1.022-3.255-1.022-5.89V94.288c0-1.403-.321-2.41-.952-3.006-.8-.771-1.641-1.153-2.549-1.153-.856 0-1.588.261-2.226.78-.932.578-1.398 1.703-1.398 3.379v16.213c0 3.541.548 6.386 1.646 8.563.461 1.207 1.393 2.703 2.801 4.485 3.871 4.233 8.519 6.35 13.958 6.35 2.743 0 5.46-.55 8.027-1.897 1.409-.739 2.371-1.753 3.043-2.547v.524c0 2.116-.487 4.175-1.48 6.178-1.616 3.213-4.229 5.517-7.824 6.917-1.098.355-2.21.613-3.332.78-1.538 0-2.598.177-3.173.536-1.176.827-1.771 1.855-1.771 3.087 0 .577.21 1.22.621 1.929.825 1.101 1.798 1.642 2.92 1.642a.492.492 0 0 1 .168-.037h.205c2.776 0 5.683-.679 8.73-2.019 1.915-.909 3.743-2.167 5.475-3.79 1.669-1.704 2.8-3.05 3.373-4.039 2.167-3.612 3.255-7.278 3.255-10.99V91.89c0-1.393-.314-2.4-.948-3.008-.802-.766-1.651-1.15-2.559-1.15l.002-.001zm-229.203-.972c0-7.344 6.244-9.628 12.641-9.628 6.822 0 11.72 2.578 13.433 8.647l.008.061a3.638 3.638 0 0 0 7.083-1.656c-.018-.072-.043-.157-.065-.233-2.242-9.081-10.194-13.147-20.148-13.147-10.346 0-20.459 5.135-20.459 16.511 0 20.703 36.094 10.511 36.094 25.989 0 8.137-7.5 10.264-14.296 10.264-7.533 0-14.581-3.204-16.124-10.492a3.369 3.369 0 0 0-.073-.368 3.572 3.572 0 0 0-4.375-2.524c-1.829.489-2.943 2.333-2.563 4.17.021.098.035.185.035.193 2.127 10.506 11.727 15.348 22.864 15.348 10.271 0 22.043-4.817 22.043-16.823.006-22.2-36.098-12.412-36.098-26.314v.002z" fill="#f68b74"/><path d="M732.974 80.303h1.41c.696 0 1.255-.18 1.677-.541.422-.361.633-.82.633-1.377 0-.652-.187-1.12-.561-1.403-.374-.283-.966-.424-1.775-.424h-1.384v3.745zm5.664-1.97c0 .696-.185 1.311-.554 1.847-.37.535-.89.933-1.56 1.193l3.106 5.155h-2.193l-2.701-4.62h-1.762v4.62h-1.931V74.901h3.407c1.443 0 2.503.283 3.177.848.674.565 1.011 1.427 1.011 2.584zm-13.793 2.375c0-1.74.435-3.371 1.304-4.894a9.567 9.567 0 0 1 3.589-3.601 9.679 9.679 0 0 1 4.92-1.319 9.69 9.69 0 0 1 4.893 1.306 9.576 9.576 0 0 1 3.603 3.588 9.685 9.685 0 0 1 1.318 4.92 9.72 9.72 0 0 1-1.266 4.829c-.844 1.505-2.027 2.709-3.55 3.615-1.522.905-3.189 1.356-4.998 1.356a9.62 9.62 0 0 1-4.985-1.35c-1.523-.901-2.708-2.103-3.557-3.608a9.718 9.718 0 0 1-1.271-4.842zm1.369 0c0 1.506.379 2.913 1.136 4.222a8.298 8.298 0 0 0 3.1 3.093 8.302 8.302 0 0 0 4.208 1.129 8.212 8.212 0 0 0 4.215-1.136 8.498 8.498 0 0 0 3.086-3.073 8.186 8.186 0 0 0 1.142-4.235 8.212 8.212 0 0 0-1.135-4.215 8.498 8.498 0 0 0-3.073-3.086 8.186 8.186 0 0 0-4.235-1.142 8.212 8.212 0 0 0-4.215 1.135 8.5 8.5 0 0 0-3.087 3.073 8.196 8.196 0 0 0-1.142 4.235z" fill="#f58c75"/></g><defs><linearGradient id="_Linear1" x2="1" gradientUnits="userSpaceOnUse" gradientTransform="translate(45.478 107.986) scale(118.902)"><stop offset="0" stop-color="#c8534c"/><stop offset="1" stop-color="#f0805f"/></linearGradient></defs></svg>