<?xml version="1.0" encoding="UTF-8" standalone="no"?>
<!DOCTYPE svg PUBLIC "-//W3C//DTD SVG 1.1//EN" "http://www.w3.org/Graphics/SVG/1.1/DTD/svg11.dtd">
<svg width="100%" height="100%" viewBox="0 0 3201 892" version="1.1" xmlns="http://www.w3.org/2000/svg" xmlns:xlink="http://www.w3.org/1999/xlink" xml:space="preserve" xmlns:serif="http://www.serif.com/" style="fill-rule:evenodd;clip-rule:evenodd;stroke-linecap:round;stroke-linejoin:round;stroke-miterlimit:1.5;">
    <g id="Artboard2" transform="matrix(0.885967,0,0,0.871094,0,0)">
        <g>
            <g transform="matrix(1.25334,0,0,1.27474,-3018.25,-162.373)">
                <path d="M2841.09,273.563C2846.57,269.219 2853.78,270.378 2855.69,278.784C2871.36,347.778 2905.52,598.383 2899.04,617.162C2898.75,618.017 2898.58,618.245 2897.55,619.577C2889.14,630.274 2877.58,638.263 2865.82,645.738C2824.79,671.831 2777.89,688.714 2730.46,698.702C2653.71,714.863 2571.58,710.07 2501.27,675.256C2488.86,669.112 2476.38,661.701 2462.19,662.525C2448.82,663.301 2438.24,676.6 2438.76,691.17C2439.12,700.897 2443.43,710.193 2448.67,718.453L2449.73,720.894C2449.95,723.208 2450.29,723.893 2449.4,726.137C2447.41,731.151 2440.3,733.047 2436.08,729.559C2434.75,728.46 2433.81,726.756 2433.8,726.734C2413.69,694.564 2409.43,654.997 2408.4,616.083C2406.64,549.155 2415.28,482.095 2427.3,416.379C2432.73,386.708 2438.55,357.071 2447.5,327.991C2450.04,319.731 2453.01,311.637 2458.71,304.781C2467,294.815 2479.01,288.05 2491.84,286.257C2505.91,284.291 2520.24,288.596 2532.38,295.73C2564.91,314.686 2601.41,326.21 2638.88,329.67C2690.64,334.45 2743.45,324.896 2790.69,304.112C2808.72,296.178 2825.69,285.793 2841.09,273.563Z" style="fill:rgb(77,186,135);fill-rule:nonzero;"/>
            </g>
            <g transform="matrix(-0.960752,0.56223,-0.776139,-1.11941,2194.17,-150.938)">
                <path d="M1624.02,215.613L1623.76,215.481L1623.52,215.351L1623.27,215.215L1623.02,215.078L1622.77,214.938L1622.53,214.797L1622.28,214.653L1622.04,214.508L1621.8,214.361L1621.56,214.212L1621.32,214.06L1621.08,213.907L1620.84,213.749L1620.61,213.592L1620.38,213.433L1620.15,213.273L1619.92,213.11L1619.68,212.938L1619.45,212.771L1619.23,212.604L1619,212.429L1618.78,212.257L1618.56,212.083L1618.34,211.903L1618.11,211.717L1617.9,211.538L1617.69,211.356L1617.47,211.164L1617.25,210.975L1617.05,210.788L1616.84,210.594L1616.63,210.399L1616.42,210.202L1616.22,210.003L1616.02,209.802L1615.81,209.595L1615.61,209.391L1615.41,209.184L1615.22,208.976L1615.03,208.766L1614.83,208.549L1614.65,208.335L1614.46,208.119L1614.27,207.897L1614.09,207.674L1613.9,207.452L1613.72,207.225L1613.54,206.995L1613.37,206.768L1613.21,206.557L1613.04,206.318L1612.89,206.071L1612.75,205.817L1612.62,205.557L1612.51,205.292L1612.42,205.021L1612.35,204.746L1612.29,204.466L1612.24,204.184L1612.22,203.899L1612.21,203.612L1612.21,203.323L1612.24,203.034L1612.28,202.745L1612.33,202.457L1612.41,202.17L1612.5,201.885L1612.6,201.602L1612.72,201.323L1612.86,201.047L1613.01,200.776L1613.18,200.51L1613.36,200.25L1613.56,199.996L1613.77,199.749L1613.99,199.509L1614.22,199.278L1614.47,199.054L1614.73,198.84L1615,198.636L1615.28,198.441L1615.57,198.257L1615.87,198.083L1616.18,197.921L1616.49,197.77L1616.82,197.631L1617.14,197.504L1617.48,197.39L1617.82,197.289L1618.16,197.201L1618.51,197.125L1618.85,197.064L1619.2,197.015L1619.56,196.981L1619.91,196.96L1620.26,196.952L1620.61,196.959L1620.95,196.979L1621.3,197.013L1621.64,197.061L1621.97,197.122L1622.3,197.197L1622.62,197.284L1622.94,197.385L1623.25,197.499L1623.55,197.625L1623.84,197.763L1624.12,197.913L1624.4,198.075L1624.66,198.248L1624.91,198.432L1625.14,198.626L1625.37,198.83L1625.58,199.044L1625.78,199.267L1625.96,199.498L1626.09,199.668L1626.21,199.819L1626.32,199.964L1626.43,200.106L1626.55,200.252L1626.67,200.391L1626.79,200.528L1626.9,200.668L1627.03,200.806L1627.14,200.937L1627.27,201.072L1627.39,201.205L1627.52,201.336L1627.64,201.466L1627.77,201.589L1627.89,201.715L1628.15,201.963L1628.28,202.084L1628.41,202.202L1628.54,202.324L1628.67,202.441L1628.8,202.551L1628.94,202.668L1629.07,202.784L1629.2,202.89L1629.34,202.998L1629.48,203.109L1629.62,203.217L1629.75,203.321L1629.89,203.428L1630.04,203.532L1630.17,203.627L1630.31,203.729L1630.45,203.829L1630.6,203.927L1630.74,204.024L1630.88,204.116L1631.03,204.21L1631.17,204.303L1631.32,204.394L1631.47,204.484L1631.61,204.572L1631.76,204.659L1631.91,204.745L1632.06,204.829L1632.36,204.993L1632.52,205.076L1632.67,205.155L1632.82,205.232L1632.98,205.311L1633.13,205.385L1633.29,205.462L1633.44,205.534L1633.59,205.604L1633.75,205.676L1633.91,205.747L1634.07,205.817L1634.22,205.882L1634.38,205.946L1634.54,206.012L1634.71,206.079L1634.86,206.14L1635.03,206.201L1635.19,206.262L1635.35,206.321L1635.51,206.379L1635.68,206.435L1635.84,206.491L1636,206.545L1636.17,206.6L1636.33,206.649L1636.5,206.702L1636.67,206.751L1636.83,206.799L1637,206.848L1637.17,206.893L1637.34,206.94L1637.51,206.983L1637.68,207.027L1637.85,207.07L1638.02,207.109L1638.18,207.148L1638.35,207.186L1638.53,207.224L1638.7,207.261L1638.87,207.296L1639.21,207.362L1639.39,207.394L1639.57,207.425L1639.74,207.455L1640.08,207.509L1640.26,207.536L1640.43,207.561L1640.61,207.585L1640.78,207.608L1640.95,207.629L1641.13,207.65L1641.31,207.67L1641.48,207.689L1641.84,207.723L1642.01,207.738L1642.19,207.752L1642.36,207.765L1642.54,207.777L1642.72,207.788L1642.89,207.798L1643.07,207.807L1643.25,207.815L1643.42,207.821L1643.6,207.827L1643.78,207.832L1643.95,207.835L1644.13,207.838L1644.31,207.839L1644.66,207.839L1644.83,207.837L1645.02,207.834L1645.2,207.831L1645.36,207.826L1645.54,207.82L1645.72,207.813L1645.9,207.805L1646.07,207.797L1646.24,207.787L1646.42,207.776L1646.6,207.764L1646.77,207.751L1646.95,207.737L1647.12,207.722L1647.29,207.707L1647.46,207.69L1647.64,207.672L1647.81,207.654L1647.99,207.634L1648.16,207.614L1648.33,207.592L1648.5,207.569L1648.67,207.546L1648.85,207.521L1649.01,207.496L1649.19,207.469L1649.36,207.442L1649.52,207.414L1649.69,207.385L1649.86,207.355L1650.03,207.324L1650.19,207.293L1650.36,207.259L1650.53,207.225L1650.69,207.192L1650.86,207.156L1651.03,207.119L1651.18,207.083L1651.35,207.045L1651.51,207.006L1651.67,206.966L1651.84,206.925L1651.99,206.886L1652.15,206.844L1652.31,206.8L1652.47,206.756L1652.63,206.71L1652.79,206.666L1652.93,206.622L1653.09,206.575L1653.25,206.526L1653.4,206.476L1653.56,206.427L1653.7,206.378L1653.85,206.329L1654,206.277L1654.16,206.224L1654.3,206.171L1654.45,206.119L1654.59,206.064L1654.74,206.008L1654.88,205.953L1655.03,205.897L1655.17,205.842L1655.31,205.784L1655.45,205.723L1655.59,205.666L1655.73,205.607L1655.87,205.546L1656,205.487L1656.13,205.425L1656.27,205.363L1656.4,205.3L1656.53,205.237L1656.66,205.175L1656.79,205.112L1656.92,205.044L1657.05,204.979L1657.17,204.916L1657.3,204.849L1657.42,204.782L1657.54,204.716L1657.66,204.649L1657.78,204.58L1657.9,204.51L1658.02,204.442L1658.13,204.374L1658.25,204.302L1658.36,204.233L1658.47,204.163L1658.59,204.09L1658.69,204.02L1658.8,203.949L1658.91,203.877L1659.01,203.805L1659.12,203.73L1659.22,203.657L1659.32,203.587L1659.42,203.51L1659.52,203.436L1659.62,203.363L1659.72,203.288L1659.81,203.212L1659.9,203.138L1660,203.065L1660.09,202.987L1660.18,202.909L1660.27,202.835L1660.35,202.759L1660.44,202.68L1660.53,202.604L1660.61,202.53L1660.69,202.453L1660.77,202.372L1660.85,202.294L1660.92,202.219L1661,202.139L1661.08,202.061L1661.15,201.985L1661.22,201.905L1661.29,201.827L1661.36,201.75L1661.43,201.665L1661.5,201.587L1661.56,201.512L1661.63,201.429L1661.69,201.35L1661.75,201.274L1661.82,201.19L1661.88,201.11L1661.93,201.033L1661.99,200.947L1662.05,200.865L1662.1,200.791L1662.17,200.681L1662.35,200.42L1662.55,200.166L1662.76,199.918L1662.98,199.678L1663.21,199.445L1663.46,199.221L1663.72,199.007L1663.99,198.801L1664.26,198.605L1664.55,198.42L1664.85,198.246L1665.16,198.082L1665.47,197.931L1665.8,197.791L1666.12,197.663L1666.46,197.548L1666.8,197.446L1667.14,197.356L1667.48,197.28L1667.83,197.217L1668.18,197.168L1668.53,197.132L1668.88,197.11L1669.24,197.101L1669.59,197.107L1669.93,197.126L1670.28,197.159L1670.62,197.205L1670.95,197.265L1671.28,197.339L1671.61,197.425L1671.92,197.525L1672.23,197.637L1672.53,197.762L1672.83,197.9L1673.11,198.049L1673.38,198.21L1673.64,198.382L1673.89,198.565L1674.13,198.758L1674.36,198.961L1674.57,199.174L1674.77,199.396L1674.96,199.627L1675.13,199.866L1675.28,200.112L1675.42,200.365L1675.55,200.624L1675.66,200.889L1675.75,201.16L1675.83,201.435L1675.89,201.714L1675.94,201.996L1675.97,202.281L1675.98,202.568L1675.97,202.856L1675.95,203.145L1675.91,203.434L1675.85,203.723L1675.78,204.01L1675.69,204.295L1675.59,204.578L1675.47,204.858L1675.33,205.134L1675.18,205.405L1675.02,205.671L1674.9,205.85L1674.76,206.063L1674.61,206.268L1674.47,206.467L1674.32,206.672L1674.17,206.872L1674.03,207.068L1673.87,207.27L1673.71,207.467L1673.56,207.659L1673.39,207.857L1673.23,208.05L1673.07,208.235L1672.9,208.426L1672.73,208.615L1672.56,208.8L1672.38,208.987L1672.21,209.169L1672.03,209.349L1671.85,209.532L1671.67,209.71L1671.49,209.883L1671.3,210.059L1671.11,210.236L1670.92,210.409L1670.73,210.577L1670.54,210.746L1670.34,210.917L1670.15,211.08L1669.95,211.242L1669.75,211.407L1669.55,211.57L1669.35,211.729L1669.14,211.887L1668.93,212.045L1668.73,212.2L1668.52,212.35L1668.31,212.505L1668.1,212.656L1667.88,212.803L1667.67,212.95L1667.45,213.097L1667.23,213.242L1667.01,213.385L1666.8,213.524L1666.57,213.665L1666.35,213.803L1666.13,213.938L1665.9,214.074L1665.67,214.208L1665.45,214.339L1665.22,214.468L1664.99,214.598L1664.76,214.726L1664.52,214.851L1664.29,214.974L1664.05,215.1L1663.82,215.22L1663.58,215.337L1663.34,215.457L1663.1,215.574L1662.86,215.689L1662.62,215.802L1662.38,215.914L1662.14,216.024L1661.89,216.134L1661.65,216.241L1661.4,216.347L1661.15,216.453L1660.91,216.554L1660.66,216.655L1660.41,216.757L1660.16,216.855L1659.9,216.952L1659.65,217.046L1659.4,217.14L1659.14,217.234L1658.89,217.325L1658.64,217.413L1658.38,217.5L1658.12,217.588L1657.86,217.675L1657.6,217.757L1657.35,217.838L1657.09,217.917L1656.83,217.997L1656.56,218.076L1656.3,218.152L1656.04,218.225L1655.78,218.298L1655.51,218.369L1655.25,218.439L1654.98,218.51L1654.71,218.576L1654.45,218.641L1654.18,218.704L1653.91,218.767L1653.64,218.828L1653.37,218.887L1653.11,218.944L1652.83,219.001L1652.57,219.055L1652.3,219.108L1652.02,219.16L1651.75,219.211L1651.48,219.26L1651.2,219.306L1650.93,219.353L1650.66,219.396L1650.38,219.438L1650.11,219.48L1649.84,219.519L1649.56,219.557L1649.28,219.593L1649.01,219.628L1648.73,219.661L1648.45,219.692L1648.17,219.722L1647.9,219.751L1647.62,219.778L1647.34,219.803L1647.06,219.827L1646.78,219.849L1646.5,219.869L1646.22,219.888L1645.95,219.905L1645.66,219.921L1645.38,219.935L1645.11,219.947L1644.83,219.958L1644.55,219.968L1644.26,219.975L1643.98,219.981L1643.7,219.985L1643.42,219.988L1643.14,219.989L1642.86,219.988L1642.57,219.986L1642.29,219.982L1642.01,219.977L1641.73,219.969L1641.45,219.96L1641.16,219.949L1640.88,219.937L1640.61,219.923L1640.32,219.907L1640.04,219.889L1639.76,219.871L1639.48,219.849L1639.2,219.827L1638.91,219.802L1638.62,219.776L1638.35,219.748L1638.07,219.719L1637.79,219.687L1637.51,219.655L1637.23,219.62L1636.95,219.583L1636.66,219.544L1636.38,219.503L1636.11,219.462L1635.83,219.418L1635.54,219.372L1635.26,219.323L1634.99,219.275L1634.71,219.225L1634.44,219.172L1634.15,219.116L1633.87,219.059L1633.6,219.001L1633.33,218.941L1633.05,218.88L1632.77,218.814L1632.49,218.748L1632.22,218.68L1631.95,218.611L1631.67,218.539L1631.4,218.466L1631.12,218.39L1630.86,218.314L1630.58,218.234L1630.31,218.152L1630.04,218.071L1629.76,217.983L1629.5,217.898L1629.23,217.809L1628.96,217.717L1628.69,217.625L1628.43,217.53L1628.16,217.433L1627.89,217.334L1627.63,217.234L1627.36,217.129L1627.11,217.028L1626.85,216.922L1626.58,216.811L1626.32,216.698L1626.06,216.587L1625.8,216.473L1625.55,216.358L1625.29,216.238L1625.03,216.115L1624.78,215.994L1624.52,215.868L1624.27,215.743L1624.02,215.613Z" style="fill:rgb(67,84,102);"/>
            </g>
            <g transform="matrix(-1.18553,-0.339463,0.375951,-1.504,2054.18,1412.6)">
                <path d="M1653.69,218.176L1653.42,218.233L1653.15,218.288L1652.89,218.341L1652.63,218.392L1652.37,218.443L1652.1,218.493L1651.83,218.541L1651.57,218.586L1651.3,218.631L1651.03,218.674L1650.76,218.715L1650.49,218.755L1650.23,218.793L1649.96,218.831L1649.68,218.867L1649.41,218.901L1649.14,218.933L1648.87,218.964L1648.6,218.994L1648.33,219.021L1648.06,219.047L1647.78,219.072L1647.51,219.095L1647.23,219.117L1646.96,219.137L1646.68,219.156L1646.41,219.173L1646.13,219.188L1645.86,219.202L1645.59,219.214L1645.31,219.225L1645.03,219.234L1644.75,219.242L1644.48,219.247L1644.2,219.252L1643.92,219.254L1643.65,219.255L1643.37,219.255L1643.09,219.252L1642.82,219.248L1642.54,219.243L1642.26,219.235L1641.98,219.227L1641.7,219.216L1641.42,219.204L1641.15,219.19L1640.87,219.174L1640.59,219.157L1640.32,219.138L1640.03,219.117L1639.75,219.095L1639.47,219.07L1639.2,219.045L1638.92,219.017L1638.64,218.988L1638.37,218.957L1638.09,218.924L1637.81,218.889L1637.53,218.853L1637.26,218.816L1636.98,218.775L1636.7,218.733L1636.42,218.69L1636.14,218.644L1635.87,218.598L1635.59,218.549L1635.31,218.498L1635.04,218.446L1634.76,218.391L1634.49,218.335L1634.21,218.277L1633.94,218.217L1633.66,218.155L1633.39,218.091L1633.11,218.025L1632.85,217.96L1632.57,217.89L1632.29,217.817L1632.03,217.745L1631.75,217.67L1631.48,217.593L1631.21,217.514L1630.94,217.433L1630.67,217.351L1630.4,217.266L1630.13,217.179L1629.87,217.091L1629.6,217.001L1629.34,216.908L1629.07,216.814L1628.8,216.717L1628.54,216.618L1628.28,216.52L1628.02,216.417L1627.75,216.311L1627.49,216.206L1627.23,216.097L1626.97,215.987L1626.71,215.875L1626.45,215.759L1626.2,215.644L1625.94,215.526L1625.68,215.405L1625.43,215.282L1625.18,215.159L1624.92,215.032L1624.67,214.903L1624.42,214.774L1624.17,214.639L1623.92,214.504L1623.68,214.368L1623.43,214.23L1623.19,214.09L1622.95,213.947L1622.7,213.802L1622.46,213.653L1622.22,213.505L1621.98,213.354L1621.75,213.2L1621.51,213.045L1621.28,212.888L1621.04,212.73L1620.81,212.567L1620.58,212.404L1620.35,212.238L1620.12,212.07L1619.9,211.901L1619.67,211.728L1619.45,211.554L1619.23,211.38L1619.01,211.2L1618.79,211.02L1618.57,210.84L1618.36,210.656L1618.14,210.469L1617.93,210.282L1617.72,210.09L1617.51,209.898L1617.31,209.706L1617.1,209.507L1616.9,209.309L1616.69,209.11L1616.49,208.905L1616.3,208.702L1616.1,208.496L1615.9,208.287L1615.71,208.077L1615.52,207.864L1615.33,207.65L1615.15,207.434L1614.96,207.216L1614.78,206.994L1614.6,206.772L1614.42,206.548L1614.24,206.321L1614.07,206.094L1613.91,205.883L1613.74,205.639L1613.58,205.387L1613.44,205.129L1613.32,204.865L1613.22,204.595L1613.13,204.321L1613.06,204.044L1613.01,203.763L1612.98,203.481L1612.97,203.197L1612.98,202.912L1613,202.628L1613.05,202.345L1613.11,202.065L1613.19,201.786L1613.29,201.512L1613.41,201.241L1613.55,200.976L1613.7,200.716L1613.87,200.463L1614.05,200.218L1614.25,199.98L1614.47,199.751L1614.7,199.531L1614.94,199.321L1615.2,199.121L1615.47,198.933L1615.75,198.756L1616.04,198.592L1616.35,198.44L1616.66,198.301L1616.98,198.175L1617.3,198.063L1617.64,197.965L1617.98,197.882L1618.32,197.813L1618.67,197.759L1619.02,197.72L1619.37,197.696L1619.72,197.687L1620.07,197.693L1620.42,197.714L1620.77,197.75L1621.12,197.802L1621.46,197.868L1621.79,197.948L1622.12,198.043L1622.44,198.153L1622.76,198.276L1623.06,198.412L1623.36,198.562L1623.64,198.724L1623.91,198.899L1624.17,199.085L1624.42,199.282L1624.65,199.49L1624.87,199.708L1625.08,199.935L1625.27,200.172L1625.39,200.342L1625.51,200.493L1625.63,200.64L1625.74,200.786L1625.86,200.931L1626.1,201.213L1626.34,201.491L1626.46,201.627L1626.59,201.761L1626.83,202.025L1626.96,202.156L1627.08,202.282L1627.21,202.409L1627.34,202.535L1627.47,202.656L1627.6,202.78L1627.73,202.9L1627.99,203.136L1628.13,203.251L1628.26,203.366L1628.4,203.481L1628.53,203.593L1628.67,203.701L1628.81,203.811L1628.94,203.919L1629.08,204.023L1629.22,204.129L1629.36,204.232L1629.5,204.334L1629.64,204.434L1629.79,204.533L1629.93,204.631L1630.07,204.728L1630.22,204.823L1630.36,204.917L1630.51,205.009L1630.66,205.102L1630.8,205.19L1631.1,205.366L1631.4,205.538L1631.56,205.623L1631.71,205.705L1631.85,205.784L1632.01,205.864L1632.16,205.943L1632.32,206.02L1632.47,206.098L1632.63,206.172L1632.78,206.245L1632.94,206.318L1633.1,206.39L1633.26,206.459L1633.41,206.528L1633.58,206.597L1633.9,206.729L1634.05,206.791L1634.22,206.854L1634.38,206.917L1634.55,206.978L1634.71,207.037L1634.87,207.095L1635.04,207.152L1635.2,207.209L1635.37,207.263L1635.53,207.317L1635.87,207.421L1636.21,207.521L1636.37,207.568L1636.54,207.614L1636.72,207.661L1636.88,207.705L1637.05,207.747L1637.23,207.791L1637.4,207.832L1637.57,207.871L1637.74,207.911L1637.91,207.948L1638.09,207.985L1638.26,208.021L1638.44,208.055L1638.61,208.089L1638.79,208.121L1638.96,208.151L1639.14,208.182L1639.32,208.211L1639.49,208.238L1639.67,208.264L1639.84,208.289L1640.02,208.314L1640.2,208.338L1640.38,208.36L1640.55,208.38L1640.74,208.401L1640.91,208.42L1641.27,208.454L1641.45,208.47L1641.63,208.484L1641.81,208.497L1642.17,208.521L1642.35,208.531L1642.53,208.54L1642.71,208.548L1642.89,208.555L1643.25,208.565L1643.43,208.569L1643.61,208.571L1643.8,208.573L1643.97,208.573L1644.15,208.572L1644.34,208.571L1644.52,208.568L1644.7,208.564L1644.88,208.559L1645.06,208.553L1645.24,208.547L1645.42,208.538L1645.6,208.529L1645.78,208.519L1645.96,208.508L1646.14,208.496L1646.32,208.483L1646.5,208.469L1646.68,208.453L1646.86,208.437L1647.04,208.42L1647.22,208.401L1647.39,208.382L1647.57,208.362L1647.75,208.34L1647.93,208.318L1648.1,208.295L1648.28,208.271L1648.46,208.245L1648.64,208.219L1648.81,208.192L1648.99,208.164L1649.16,208.134L1649.34,208.104L1649.51,208.073L1649.68,208.042L1649.86,208.009L1650.03,207.974L1650.21,207.938L1650.38,207.903L1650.55,207.867L1650.72,207.83L1650.89,207.79L1651.06,207.75L1651.23,207.71L1651.39,207.67L1651.56,207.627L1651.73,207.584L1651.9,207.54L1652.07,207.495L1652.23,207.449L1652.4,207.402L1652.56,207.355L1652.72,207.307L1652.88,207.258L1653.04,207.209L1653.21,207.157L1653.37,207.104L1653.53,207.052L1653.68,207L1653.84,206.945L1654,206.89L1654.15,206.835L1654.31,206.778L1654.46,206.721L1654.62,206.664L1654.77,206.604L1654.92,206.543L1655.07,206.484L1655.22,206.424L1655.37,206.361L1655.52,206.298L1655.67,206.235L1655.81,206.172L1655.96,206.106L1656.1,206.04L1656.24,205.975L1656.38,205.909L1656.53,205.841L1656.67,205.773L1656.81,205.703L1656.94,205.635L1657.08,205.566L1657.22,205.494L1657.35,205.422L1657.48,205.352L1657.61,205.278L1657.75,205.204L1657.87,205.133L1658,205.058L1658.13,204.984L1658.25,204.908L1658.38,204.831L1658.5,204.757L1658.63,204.677L1658.75,204.598L1658.86,204.524L1658.98,204.445L1659.11,204.363L1659.22,204.286L1659.33,204.208L1659.45,204.123L1659.56,204.043L1659.67,203.963L1659.78,203.881L1659.88,203.8L1659.99,203.716L1660.1,203.632L1660.2,203.55L1660.31,203.465L1660.41,203.381L1660.51,203.298L1660.61,203.21L1660.71,203.124L1660.8,203.041L1660.89,202.954L1660.99,202.868L1661.08,202.781L1661.17,202.693L1661.26,202.605L1661.35,202.517L1661.43,202.429L1661.52,202.34L1661.6,202.251L1661.68,202.163L1661.77,202.072L1661.85,201.982L1661.92,201.892L1662,201.803L1662.08,201.713L1662.15,201.622L1662.22,201.531L1662.29,201.439L1662.36,201.345L1662.43,201.255L1662.5,201.164L1662.56,201.071L1662.63,200.974L1662.69,200.882L1662.77,200.77L1662.94,200.519L1663.13,200.277L1663.34,200.042L1663.56,199.816L1663.8,199.6L1664.04,199.394L1664.31,199.199L1664.58,199.015L1664.87,198.842L1665.16,198.682L1665.47,198.535L1665.78,198.401L1666.11,198.28L1666.43,198.174L1666.77,198.081L1667.11,198.003L1667.46,197.94L1667.81,197.891L1668.16,197.857L1668.51,197.839L1668.86,197.836L1669.21,197.847L1669.56,197.874L1669.91,197.916L1670.25,197.973L1670.59,198.044L1670.92,198.131L1671.25,198.231L1671.57,198.345L1671.88,198.473L1672.18,198.615L1672.47,198.769L1672.75,198.936L1673.02,199.115L1673.28,199.305L1673.52,199.507L1673.75,199.718L1673.96,199.94L1674.16,200.171L1674.34,200.41L1674.51,200.657L1674.66,200.911L1674.79,201.172L1674.9,201.438L1675,201.71L1675.08,201.985L1675.14,202.264L1675.18,202.545L1675.21,202.828L1675.21,203.112L1675.2,203.397L1675.16,203.681L1675.11,203.963L1675.04,204.243L1674.95,204.52L1674.85,204.793L1674.72,205.062L1674.58,205.325L1674.42,205.582L1674.31,205.759L1674.18,205.954L1674.05,206.144L1673.91,206.335L1673.77,206.527L1673.63,206.718L1673.49,206.903L1673.34,207.089L1673.2,207.275L1673.05,207.459L1672.89,207.641L1672.74,207.823L1672.58,208.004L1672.43,208.181L1672.27,208.357L1672.1,208.533L1671.94,208.707L1671.78,208.879L1671.61,209.051L1671.44,209.22L1671.27,209.389L1671.09,209.555L1670.92,209.721L1670.74,209.886L1670.56,210.048L1670.38,210.212L1670.2,210.371L1670.02,210.527L1669.83,210.686L1669.64,210.842L1669.45,210.996L1669.26,211.15L1669.07,211.3L1668.88,211.45L1668.68,211.599L1668.48,211.747L1668.28,211.894L1668.08,212.039L1667.89,212.178L1667.68,212.322L1667.47,212.465L1667.27,212.6L1667.07,212.737L1666.85,212.877L1666.64,213.01L1666.43,213.14L1666.22,213.274L1666.01,213.404L1665.79,213.532L1665.57,213.661L1665.36,213.786L1665.13,213.913L1664.91,214.035L1664.69,214.156L1664.47,214.278L1664.25,214.396L1664.02,214.513L1663.8,214.63L1663.57,214.746L1663.34,214.858L1663.11,214.97L1662.88,215.08L1662.65,215.19L1662.41,215.299L1662.18,215.404L1661.94,215.508L1661.71,215.613L1661.47,215.715L1661.23,215.815L1661,215.914L1660.75,216.013L1660.51,216.11L1660.27,216.204L1660.03,216.297L1659.78,216.39L1659.54,216.481L1659.29,216.57L1659.05,216.659L1658.8,216.746L1658.55,216.83L1658.3,216.914L1658.05,216.997L1657.8,217.077L1657.55,217.156L1657.3,217.234L1657.04,217.311L1656.79,217.387L1656.53,217.461L1656.28,217.532L1656.02,217.604L1655.77,217.672L1655.51,217.741L1655.25,217.807L1654.99,217.872L1654.73,217.937L1654.47,217.999L1654.21,218.059L1653.95,218.118L1653.69,218.176Z" style="fill:rgb(67,84,102);"/>
            </g>
            <g transform="matrix(1.4531,-0.13713,0.143916,1.57751,-517.244,-401.73)">
                <path d="M661.847,843.526C549.443,886.739 390.268,855.68 324.309,783.566C308.293,766.055 293.134,740.055 308.166,720.394C325.118,698.223 353.264,714.407 363.132,720.394C497.773,802.083 674.227,737.761 702.374,708.852C602.541,798.913 666.208,841.849 661.847,843.526Z" style="fill:rgb(243,243,243);"/>
            </g>
            <g transform="matrix(1.4531,-0.13713,0.143916,1.57751,-517.244,-401.73)">
                <path d="M661.847,843.526C549.443,886.739 390.268,855.68 324.309,783.566C308.293,766.055 293.134,740.055 308.166,720.394C325.118,698.223 353.264,714.407 363.132,720.394C497.773,802.083 674.227,737.761 702.374,708.852" style="fill:none;stroke:rgb(67,84,102);stroke-width:14.12px;"/>
            </g>
            <g transform="matrix(1.44537,-0.2049,0.215037,1.56912,-554.945,-433.424)">
                <path d="M672.574,829.814C534.835,883.724 392.446,858.062 324.309,783.566" style="fill:none;stroke:rgb(153,164,166);stroke-width:14.12px;"/>
            </g>
            <g transform="matrix(-1.14379,0,0,1.16332,3370.26,-180.7)">
                <path d="M2643.73,417.466C2643.73,410.873 2646.03,398.448 2647.72,390.222C2654.22,358.706 2667.12,327.742 2685.4,301.311L2685.46,301.225C2671.16,298.883 2647.19,300.33 2634.39,304.223C2634.39,304.223 2630.85,305.233 2628.24,303.828C2625.26,302.226 2624.23,298.61 2624.7,295.083C2627.38,274.973 2650.6,231.534 2679.4,215.616C2687.81,210.969 2688.59,220.472 2685.14,223.74C2663.64,240.669 2645.53,275.149 2642.7,286.19C2648.49,284.791 2681.05,278.495 2704.46,286.796C2704.46,286.796 2707.5,288.388 2708.46,289.476C2710.61,291.915 2711.35,295.485 2710.36,298.584C2709.91,299.964 2706.78,304.319 2705.37,306.427C2687.86,332.488 2677.05,362.188 2671.35,393.231C2669.89,401.181 2667.97,410.419 2667.97,417.466C2667.97,424.513 2662.54,429.584 2655.85,429.584C2649.16,429.584 2643.73,424.06 2643.73,417.466Z" style="fill:rgb(67,84,102);"/>
            </g>
            <g transform="matrix(0.611733,0,0,1.27474,-1685.33,-198.334)">
                <g transform="matrix(2.06423,0,-3.61492e-17,1.00752,2243.71,1.85734)">
                    <circle cx="491.685" cy="194.362" r="41.779" style="fill:rgb(254,153,1);"/>
                </g>
                <g transform="matrix(0.757834,0,-1.32713e-17,0.369887,2859.41,105.788)">
                    <circle cx="491.685" cy="194.362" r="41.779" style="fill:rgb(253,253,253);fill-opacity:0.294118;"/>
                </g>
            </g>
        </g>
        <g transform="matrix(1.12871,0,0,1.14798,840.1,0)">
            <path d="M693.792,768.962C693.261,778.69 685.196,786.424 675.339,786.424C665.139,786.424 656.858,778.144 656.858,767.944C656.858,767.427 656.879,766.915 656.921,766.41L656.766,381.51L656.867,381.51C656.861,381.314 656.858,381.117 656.858,380.919C656.858,370.719 665.139,362.438 675.339,362.438C685.539,362.438 693.82,370.719 693.82,380.919C693.82,381.592 693.784,382.257 693.713,382.912L693.75,406.613L694.878,406.613C739.114,340.248 843.941,342.407 897.044,395.393C936.478,434.768 946.531,497.769 925.881,548.85C916.003,573.272 898.872,594.505 876.802,608.972C853.08,624.547 825.06,631.839 796.807,631.722C757.938,631.586 717.008,614.515 694.878,581.322L693.75,581.322L693.867,768.962L693.792,768.962ZM1529.1,581.458C1484.86,647.822 1380.04,645.664 1326.96,592.658C1287.52,553.302 1277.45,490.302 1298.1,439.221C1307.98,414.799 1325.13,393.565 1347.18,379.099C1370.92,363.523 1398.92,356.232 1427.19,356.348C1466.06,356.485 1506.98,373.537 1529.1,406.749L1530.23,406.749L1530.11,219.109L1530.23,219.109C1530.76,209.386 1538.83,201.648 1548.68,201.648C1558.89,201.648 1567.17,209.931 1567.17,220.12C1567.17,220.762 1567.14,221.403 1567.08,222.025L1567.23,606.561L1567.16,606.561C1567.16,606.757 1567.17,606.951 1567.17,607.144C1567.17,617.353 1558.89,625.636 1548.68,625.636C1538.5,625.636 1530.21,617.353 1530.21,607.144C1530.21,606.639 1530.23,606.153 1530.27,605.647L1530.23,581.458L1529.1,581.458ZM2138.89,601.661C2138.8,601.817 2138.66,601.953 2138.52,602.089C2129.62,609.672 2120.09,615.739 2109.9,620.25C2093.49,627.522 2076.3,631.353 2058.39,631.722C2037.1,632.092 2017.89,628.825 2000.7,621.922C1983.53,615.019 1968.87,605.394 1956.76,593.086C1944.6,580.758 1935.37,566.116 1929.03,549.122C1922.69,532.147 1919.5,513.752 1919.5,493.958C1919.5,474.182 1922.69,455.788 1929.03,438.813C1935.37,421.818 1944.6,407.157 1956.76,394.849C1968.87,382.521 1983.53,372.915 2000.7,366.012C2017.89,359.09 2037.1,355.823 2058.39,356.212C2076.3,356.582 2093.49,360.393 2109.9,367.685C2120.28,372.293 2128.98,377.835 2138.02,385.632C2138.82,386.293 2139.57,387.051 2140.27,387.868C2146.69,395.471 2145.74,406.846 2138.14,413.263C2130.96,419.329 2120.4,418.804 2113.85,412.329C2109.36,408.285 2102.61,403.015 2097.3,399.885C2085.93,393.157 2072.94,389.813 2058.39,389.813C2043.09,389.424 2029.36,391.854 2017.23,397.085C2005.09,402.315 1994.73,409.588 1986.14,418.921C1977.56,428.254 1971.03,439.357 1966.56,452.249C1962.06,465.121 1959.83,479.024 1959.83,493.958C1959.83,508.891 1962.06,522.794 1966.56,535.686C1971.03,548.558 1977.56,559.661 1986.14,569.014C1994.73,578.328 2005.09,585.619 2017.23,590.85C2029.36,596.08 2043.09,598.492 2058.39,598.122C2072.94,598.122 2085.93,594.758 2097.3,588.05C2102.9,584.744 2108.62,580.641 2113.09,576.558C2113.64,575.936 2114.24,575.353 2114.88,574.808C2122.48,568.391 2133.86,569.344 2140.27,576.947C2146.48,584.278 2145.78,595.147 2138.89,601.661ZM581.724,581.322C559.594,614.515 518.664,631.586 479.795,631.722C451.542,631.839 423.522,624.547 399.78,608.972C377.73,594.505 360.599,573.272 350.721,548.85C330.051,497.769 340.124,434.768 379.558,395.393C432.661,342.407 537.468,340.248 581.724,406.613L582.832,406.613L582.871,382.424C582.832,381.918 582.813,381.432 582.813,380.926C582.813,370.718 591.096,362.435 601.305,362.435C611.494,362.435 619.777,370.718 619.777,380.926L619.777,381.51L619.835,381.51L619.68,604.092C619.758,604.714 619.777,605.336 619.777,605.978C619.777,616.186 611.494,624.469 601.305,624.469C591.096,624.469 582.813,616.186 582.813,605.978L582.715,605.978L582.832,581.322L581.724,581.322ZM1882.55,493.958C1882.55,513.752 1879.09,532.049 1872.18,548.85C1865.28,565.65 1855.66,580.194 1843.35,592.522C1831.02,604.85 1816.36,614.456 1799.38,621.358C1782.39,628.281 1763.63,631.722 1743.09,631.722C1722.95,631.722 1704.36,628.281 1687.38,621.358C1670.39,614.456 1655.75,604.85 1643.42,592.522C1631.09,580.194 1621.49,565.65 1614.58,548.85C1607.68,532.049 1604.22,513.752 1604.22,493.958C1604.22,474.182 1607.68,455.885 1614.58,439.085C1621.49,422.285 1631.09,407.721 1643.42,395.393C1655.75,383.085 1670.39,373.479 1687.38,366.557C1704.36,359.654 1722.95,356.212 1743.09,356.212C1763.63,356.212 1782.39,359.654 1799.38,366.557C1816.36,373.479 1831.02,383.085 1843.35,395.393C1855.66,407.721 1865.28,422.285 1872.18,439.085C1879.09,455.885 1882.55,474.182 1882.55,493.958ZM2215.62,574.205C2220.36,579.008 2226.43,583.908 2232.16,587.486C2243.54,594.583 2257.07,598.122 2272.76,598.122C2280.23,598.122 2287.7,597.286 2295.16,595.594C2302.63,593.922 2309.26,591.316 2315.04,587.758C2320.83,584.219 2325.5,579.65 2329.04,574.05C2332.6,568.45 2334.36,561.916 2334.36,554.45C2334.36,541.383 2329.5,531.952 2319.8,526.158C2310.1,520.383 2298.33,515.813 2284.53,512.449L2248.69,504.049C2244.2,502.922 2238.13,501.055 2230.49,498.449C2222.83,495.824 2215.36,491.916 2208.09,486.685C2200.8,481.455 2194.56,474.649 2189.33,466.249C2184.1,457.849 2181.47,447.485 2181.47,435.157C2181.47,421.721 2184.19,409.957 2189.6,399.885C2195.01,389.813 2202.3,381.587 2211.43,375.249C2220.59,368.89 2230.94,364.146 2242.53,360.957C2254.1,357.787 2266.04,356.212 2278.36,356.212C2296.66,356.212 2313.64,359.751 2329.33,366.848C2336.85,370.251 2345.06,376.415 2351.42,382.832C2352.02,383.396 2352.6,383.999 2353.15,384.66C2353.23,384.718 2353.26,384.796 2353.32,384.854C2360.23,393.235 2359.12,405.64 2350.8,412.66C2342.74,419.465 2330.86,418.746 2323.67,411.279C2323.51,411.202 2323.38,411.085 2323.26,410.968C2319.43,406.496 2315.11,402.607 2310.29,399.321C2300.94,392.982 2289.56,389.813 2276.13,389.813C2269.77,389.813 2263.33,390.551 2256.8,392.049C2250.27,393.526 2244.39,395.879 2239.16,399.049C2233.93,402.218 2229.73,406.224 2226.56,411.085C2223.39,415.927 2221.8,421.915 2221.8,429.013C2221.8,441.321 2226.1,450.285 2234.69,455.885C2243.27,461.485 2256.14,466.327 2273.33,470.449L2310.84,479.413C2329.13,483.516 2344.36,491.819 2356.47,504.322C2368.63,516.824 2374.69,532.419 2374.69,551.086C2374.69,565.28 2371.8,577.491 2366,587.758C2360.21,598.025 2352.57,606.425 2343.04,612.958C2333.53,619.492 2322.6,624.256 2310.29,627.25C2297.96,630.225 2285.46,631.722 2272.76,631.722C2252.6,631.722 2233.84,627.892 2216.47,620.25C2207.06,616.089 2197.36,609.147 2189.21,601.505C2188.22,600.728 2187.3,599.833 2186.45,598.842C2186.33,598.725 2186.24,598.608 2186.16,598.472C2179.68,590.441 2180.79,578.639 2188.72,571.93C2196.74,565.164 2208.71,566.136 2215.54,574.108L2215.62,574.205ZM97.421,201.571C107.5,201.699 115.655,209.933 115.655,220.042L115.655,404.921L116.782,404.921C120.885,397.824 126.116,391.29 132.455,385.321C138.813,379.351 145.91,374.218 153.747,369.921C161.583,365.623 169.886,362.26 178.655,359.848C187.425,357.418 196.117,356.212 204.711,356.212C238.312,356.212 263.123,365.079 279.184,382.793C295.246,400.546 303.257,425.824 303.257,458.685L303.257,607.067C303.257,617.275 294.973,625.558 284.784,625.558C274.576,625.558 266.292,617.275 266.292,607.067L266.292,479.957C266.292,450.849 261.256,428.527 251.184,413.049C241.112,397.551 222.425,389.813 195.183,389.813C193.317,389.813 188.086,390.551 179.511,392.049C170.916,393.526 161.855,397.649 152.347,404.357C142.819,411.085 134.321,421.157 126.855,434.613C119.388,448.049 115.655,466.716 115.655,490.594L115.655,607.747C115.305,617.625 107.157,625.558 97.182,625.558C87.207,625.558 79.06,617.625 78.71,607.747L78.69,607.747L78.69,220.684L78.71,220.684C78.71,220.63 78.708,220.577 78.707,220.523L78.693,220.202C78.691,220.149 78.69,220.096 78.69,220.042C78.69,209.853 86.974,201.57 97.182,201.57L97.421,201.571ZM1010.16,607.008C1009.61,616.732 1001.54,624.469 991.703,624.469C981.845,624.469 973.775,616.731 973.25,607.008L973.211,607.008L973.211,380.926C973.211,370.718 981.495,362.435 991.703,362.435C1001.89,362.435 1010.18,370.718 1010.18,380.926L1010.18,607.008L1010.16,607.008ZM1328.06,494.113C1328.06,508.191 1330.22,521.744 1335.06,534.986C1357.52,596.392 1433.84,616.128 1486.97,580.564C1515.7,561.314 1531.9,528.433 1531.9,494.113C1531.9,459.774 1515.7,426.893 1486.97,407.663C1433.84,372.099 1357.52,391.815 1335.06,453.221C1330.22,466.463 1328.06,480.016 1328.06,494.113ZM1842.22,493.958C1842.22,479.413 1839.89,465.782 1835.22,453.085C1830.55,440.388 1823.92,429.382 1815.35,420.049C1806.75,410.715 1796.39,403.326 1784.26,397.921C1772.12,392.515 1758.41,389.813 1743.09,389.813C1727.79,389.813 1714.08,392.515 1701.95,397.921C1689.81,403.326 1679.55,410.715 1671.15,420.049C1662.75,429.382 1656.21,440.388 1651.55,453.085C1646.88,465.782 1644.55,479.413 1644.55,493.958C1644.55,508.522 1646.88,522.152 1651.55,534.849C1656.21,547.547 1662.75,558.552 1671.15,567.886C1679.55,577.219 1689.81,584.589 1701.95,589.994C1714.08,595.419 1727.79,598.122 1743.09,598.122C1758.41,598.122 1772.12,595.419 1784.26,589.994C1796.39,584.589 1806.75,577.219 1815.35,567.886C1823.92,558.552 1830.55,547.547 1835.22,534.849C1839.89,522.152 1842.22,508.522 1842.22,493.958ZM380.685,493.958C380.685,479.88 382.844,466.327 387.685,453.085C410.125,391.679 486.464,371.943 539.587,407.507C568.326,426.757 584.524,459.638 584.524,493.958C584.524,528.297 568.326,561.177 539.587,580.408C486.464,615.972 410.125,596.255 387.685,534.849C382.844,521.608 380.685,508.035 380.685,493.958ZM895.916,493.958C895.916,479.88 893.758,466.327 888.916,453.085C866.458,391.679 790.137,371.943 737.014,407.507C708.275,426.757 692.078,459.638 692.078,493.958C692.078,528.297 708.275,561.177 737.014,580.408C790.137,615.972 866.458,596.255 888.916,534.849C893.758,521.608 895.916,508.035 895.916,493.958ZM1201.83,511.964L1094.31,511.964L1094.31,511.945C1084.59,511.399 1076.85,503.33 1076.85,493.492C1076.85,483.633 1084.59,475.564 1094.31,475.039L1094.31,475L1201.83,475C1212.04,475 1220.32,483.283 1220.32,493.492C1220.32,503.681 1212.04,511.964 1201.83,511.964ZM991.237,237.105C1005.34,237.105 1016.8,248.558 1016.8,262.665C1016.8,276.771 1005.34,288.224 991.237,288.224C977.13,288.224 965.677,276.771 965.677,262.665C965.677,248.558 977.13,237.105 991.237,237.105Z" style="fill:rgb(67,84,102);"/>
        </g>
    </g>
</svg>
