<svg xmlns="http://www.w3.org/2000/svg" width="20" height="20"><path fill="#0099e5" fill-rule="evenodd" d="M8.983 5.104A5.002 5.002 0 0 0 10 15a5 5 0 0 0 4.517-2.854 5 5 0 0 1-5.534-7.043zM10 16a6 6 0 1 1 0-12 6 6 0 0 1 0 12zm0 1.5a.5.5 0 0 1 .5.5v1.5a.5.5 0 1 1-1 0V18a.5.5 0 0 1 .5-.5zM10 0a.5.5 0 0 1 .5.5V2a.5.5 0 1 1-1 0V.5A.5.5 0 0 1 10 0zm5.303 15.303a.5.5 0 0 1 .707 0l1.061 1.061a.5.5 0 1 1-.707.707l-1.06-1.06a.5.5 0 0 1 0-.708zM2.93 2.93a.5.5 0 0 1 .707 0l1.06 1.06a.5.5 0 1 1-.706.708L2.929 3.636a.5.5 0 0 1 0-.707zM17.5 10a.5.5 0 0 1 .5-.5h1.5a.5.5 0 1 1 0 1H18a.5.5 0 0 1-.5-.5zM0 10a.5.5 0 0 1 .5-.5H2a.5.5 0 0 1 0 1H.5A.5.5 0 0 1 0 10zm15.303-5.303a.5.5 0 0 1 0-.707l1.061-1.061a.5.5 0 0 1 .707.707l-1.06 1.06a.5.5 0 0 1-.708 0zM2.93 17.07a.5.5 0 0 1 0-.707l1.06-1.06a.5.5 0 1 1 .708.706l-1.061 1.061a.5.5 0 0 1-.707 0z"/></svg>
