<svg viewBox="0 0 20 20" xmlns="http://www.w3.org/2000/svg" fill-rule="evenodd" clip-rule="evenodd" stroke-linejoin="round" stroke-miterlimit="1.414"><path d="M10 17.5c.274 0 .5.226.5.5v1.5c0 .274-.226.5-.5.5a.503.503 0 0 1-.5-.5V18c0-.274.226-.5.5-.5zM10 0c.274 0 .5.226.5.5V2c0 .274-.226.5-.5.5a.503.503 0 0 1-.5-.5V.5c0-.274.226-.5.5-.5zm5.303 15.303a.502.502 0 0 1 .707 0l1.061 1.061a.498.498 0 0 1-.347.86.498.498 0 0 1-.36-.153l-1.06-1.06a.5.5 0 0 1 0-.708h-.001zM2.93 2.93a.502.502 0 0 1 .707 0l1.06 1.06a.498.498 0 0 1-.347.86.5.5 0 0 1-.359-.152L2.929 3.636a.502.502 0 0 1 0-.707l.001.001zM17.5 10c0-.274.226-.5.5-.5h1.5c.274 0 .5.226.5.5s-.226.5-.5.5H18a.503.503 0 0 1-.5-.5zM0 10c0-.274.226-.5.5-.5H2c.274 0 .5.226.5.5s-.226.5-.5.5H.5A.503.503 0 0 1 0 10zm15.303-5.303a.502.502 0 0 1 0-.707l1.061-1.061a.5.5 0 0 1 .707.707l-1.06 1.06a.5.5 0 0 1-.708 0v.001zM2.93 17.07a.502.502 0 0 1 0-.707l1.06-1.06a.498.498 0 0 1 .86.347.5.5 0 0 1-.152.359L3.637 17.07a.502.502 0 0 1-.707 0z" fill="#ffcc01" fill-opacity=".494"/></svg>